M48
; DRILL file {KiCad (5.1.12)-1} date 01/10/23 02:34:19
; FORMAT={-:-/ absolute / inch / decimal}
; #@! TF.CreationDate,2023-01-10T02:34:19-06:00
; #@! TF.GenerationSoftware,Kicad,Pcbnew,(5.1.12)-1
; #@! TF.FileFunction,Plated,1,2,PTH
FMAT,2
INCH
T1C0.0157
T2C0.0315
T3C0.0354
T4C0.0394
T5C0.0669
%
G90
G05
T1
X3.1331Y-3.3856
X3.2296Y-3.4802
X3.2324Y-3.6208
X3.3503Y-3.2048
X3.8172Y-3.2656
X3.9749Y-2.9123
X4.0393Y-3.6141
X4.2477Y-4.6998
X4.2765Y-4.6129
X4.2838Y-3.0465
X4.5035Y-3.8577
X4.519Y-3.6992
X4.6057Y-3.0643
X4.6129Y-4.6423
X4.7188Y-3.7472
X4.7338Y-4.1417
X4.7617Y-3.7445
X4.8935Y-4.4626
X4.8949Y-3.9769
X4.9642Y-4.4024
X4.9694Y-3.2905
X5.0122Y-3.6645
X5.1806Y-3.5781
X6.0219Y-3.665
X6.0517Y-4.0175
X6.0944Y-3.7083
X6.2668Y-3.0256
T2
X2.725Y-2.82
X2.725Y-2.92
X2.725Y-3.02
X2.725Y-3.12
X2.725Y-3.22
X2.725Y-3.32
X2.725Y-3.42
X2.73Y-3.72
X2.73Y-3.82
X2.73Y-3.92
X2.73Y-4.02
X2.73Y-4.12
X2.73Y-4.22
X2.73Y-4.32
X2.73Y-4.42
X2.73Y-4.52
X2.73Y-4.62
X2.775Y-2.68
X2.78Y-3.575
X2.9719Y-2.68
X2.9769Y-3.575
X3.025Y-2.82
X3.025Y-2.92
X3.025Y-3.02
X3.025Y-3.12
X3.025Y-3.22
X3.025Y-3.32
X3.025Y-3.42
X3.03Y-3.72
X3.03Y-3.82
X3.03Y-3.92
X3.03Y-4.02
X3.03Y-4.12
X3.03Y-4.22
X3.03Y-4.32
X3.03Y-4.42
X3.03Y-4.52
X3.03Y-4.62
X3.425Y-2.82
X3.425Y-2.92
X3.425Y-3.02
X3.425Y-3.12
X3.425Y-3.22
X3.425Y-3.32
X3.425Y-3.42
X3.43Y-3.72
X3.43Y-3.82
X3.43Y-3.92
X3.43Y-4.02
X3.43Y-4.12
X3.43Y-4.22
X3.43Y-4.32
X3.43Y-4.42
X3.43Y-4.52
X3.43Y-4.62
X3.475Y-2.68
X3.48Y-3.58
X3.6719Y-2.68
X3.6769Y-3.58
X3.725Y-2.82
X3.725Y-2.92
X3.725Y-3.02
X3.725Y-3.12
X3.725Y-3.22
X3.725Y-3.32
X3.725Y-3.42
X3.73Y-3.72
X3.73Y-3.82
X3.73Y-3.92
X3.73Y-4.02
X3.73Y-4.12
X3.73Y-4.22
X3.73Y-4.32
X3.73Y-4.42
X3.73Y-4.52
X3.73Y-4.62
X4.13Y-2.82
X4.13Y-2.92
X4.13Y-3.02
X4.13Y-3.12
X4.13Y-3.22
X4.13Y-3.32
X4.13Y-3.42
X4.13Y-3.72
X4.13Y-3.82
X4.13Y-3.92
X4.13Y-4.02
X4.13Y-4.12
X4.13Y-4.22
X4.13Y-4.32
X4.13Y-4.42
X4.13Y-4.52
X4.13Y-4.62
X4.18Y-2.68
X4.18Y-3.58
X4.3769Y-2.68
X4.3769Y-3.58
X4.43Y-2.82
X4.43Y-2.92
X4.43Y-3.02
X4.43Y-3.12
X4.43Y-3.22
X4.43Y-3.32
X4.43Y-3.42
X4.43Y-3.72
X4.43Y-3.82
X4.43Y-3.92
X4.43Y-4.02
X4.43Y-4.12
X4.43Y-4.22
X4.43Y-4.32
X4.43Y-4.42
X4.43Y-4.52
X4.43Y-4.62
X4.82Y-2.82
X4.82Y-2.92
X4.82Y-3.02
X4.82Y-3.12
X4.82Y-3.22
X4.82Y-3.32
X4.82Y-3.42
X4.82Y-3.72
X4.82Y-3.82
X4.82Y-3.92
X4.82Y-4.02
X4.82Y-4.12
X4.82Y-4.22
X4.82Y-4.32
X4.82Y-4.42
X4.82Y-4.52
X4.82Y-4.62
X4.87Y-2.68
X4.87Y-3.58
X5.0669Y-2.68
X5.0669Y-3.58
X5.12Y-2.82
X5.12Y-2.92
X5.12Y-3.02
X5.12Y-3.12
X5.12Y-3.22
X5.12Y-3.32
X5.12Y-3.42
X5.12Y-3.72
X5.12Y-3.82
X5.12Y-3.92
X5.12Y-4.02
X5.12Y-4.12
X5.12Y-4.22
X5.12Y-4.32
X5.12Y-4.42
X5.12Y-4.52
X5.12Y-4.62
X5.43Y-3.755
X5.43Y-3.955
X5.43Y-4.155
X5.43Y-4.35
X5.485Y-3.605
X5.6819Y-3.605
X5.73Y-3.755
X5.73Y-3.955
X5.73Y-4.155
X5.73Y-4.35
X5.83Y-2.915
X5.905Y-3.755
X5.905Y-3.955
X5.905Y-4.155
X5.905Y-4.355
X5.9087Y-2.915
X6.205Y-3.755
X6.205Y-3.955
X6.205Y-4.155
X6.205Y-4.355
T3
X6.095Y-2.915
X6.195Y-2.915
T4
X2.725Y-2.37
X2.725Y-2.52
X2.73Y-4.79
X2.825Y-2.37
X2.825Y-2.52
X2.83Y-4.79
X2.925Y-2.37
X2.925Y-2.52
X2.93Y-4.79
X3.025Y-2.37
X3.025Y-2.52
X3.03Y-4.79
X3.125Y-2.37
X3.125Y-2.52
X3.13Y-4.79
X3.225Y-2.37
X3.225Y-2.52
X3.23Y-4.79
X3.325Y-2.37
X3.325Y-2.52
X3.33Y-4.79
X3.425Y-2.37
X3.425Y-2.52
X3.43Y-4.79
X3.525Y-2.37
X3.525Y-2.52
X3.53Y-4.79
X3.625Y-2.37
X3.625Y-2.52
X3.63Y-4.79
X3.725Y-2.37
X3.725Y-2.52
X3.73Y-4.79
X3.825Y-2.37
X3.825Y-2.52
X3.83Y-4.79
X3.925Y-2.37
X3.925Y-2.52
X3.93Y-4.79
X4.025Y-2.37
X4.025Y-2.52
X4.03Y-4.79
X4.125Y-2.37
X4.125Y-2.52
X4.13Y-4.79
X4.225Y-2.37
X4.225Y-2.52
X4.23Y-4.79
X4.325Y-2.37
X4.325Y-2.52
X4.33Y-4.79
X4.425Y-2.37
X4.425Y-2.52
X4.43Y-4.79
X4.525Y-2.37
X4.525Y-2.52
X4.53Y-4.79
X4.625Y-2.37
X4.625Y-2.52
X4.63Y-4.79
X4.725Y-2.37
X4.725Y-2.52
X4.73Y-4.79
X4.825Y-2.37
X4.825Y-2.52
X4.83Y-4.79
X4.925Y-2.37
X4.925Y-2.52
X4.93Y-4.79
X5.025Y-2.37
X5.025Y-2.52
X5.03Y-4.79
X5.125Y-2.37
X5.125Y-2.52
X5.13Y-4.79
X5.225Y-2.37
X5.225Y-2.52
X5.23Y-4.79
X5.325Y-2.37
X5.325Y-2.52
X5.33Y-4.79
X5.425Y-2.37
X5.425Y-2.52
X5.43Y-4.79
X5.525Y-2.37
X5.525Y-2.52
X5.53Y-4.79
X5.625Y-2.37
X5.625Y-2.52
X5.63Y-4.79
X6.105Y-3.145
X6.105Y-3.345
X6.205Y-3.145
X6.205Y-3.345
X6.36Y-2.915
X6.36Y-3.015
X6.36Y-3.115
X6.36Y-3.215
X6.36Y-3.315
X6.36Y-3.415
X6.36Y-3.515
X6.36Y-3.615
X6.36Y-3.715
X6.36Y-3.815
X6.36Y-3.915
X6.36Y-4.015
X6.36Y-4.115
X6.36Y-4.215
X6.36Y-4.315
X6.36Y-4.415
X6.36Y-4.515
X6.36Y-4.615
X6.36Y-4.715
X6.36Y-4.815
X6.46Y-2.915
X6.46Y-3.015
X6.46Y-3.115
X6.46Y-3.215
X6.46Y-3.315
X6.46Y-3.415
X6.46Y-3.515
X6.46Y-3.615
X6.46Y-3.715
X6.46Y-3.815
X6.46Y-3.915
X6.46Y-4.015
X6.46Y-4.115
X6.46Y-4.215
X6.46Y-4.315
X6.46Y-4.415
X6.46Y-4.515
X6.46Y-4.615
X6.46Y-4.715
X6.46Y-4.815
T5
X5.8564Y-2.465
X6.0123Y-2.465
X6.1682Y-2.465
X6.3241Y-2.465
X6.48Y-2.465
T0
M30
