%TF.GenerationSoftware,KiCad,Pcbnew,(5.1.12)-1*%
%TF.CreationDate,2023-01-10T02:34:13-06:00*%
%TF.ProjectId,NABU_IDE,4e414255-5f49-4444-952e-6b696361645f,rev?*%
%TF.SameCoordinates,Original*%
%TF.FileFunction,Legend,Top*%
%TF.FilePolarity,Positive*%
%FSLAX46Y46*%
G04 Gerber Fmt 4.6, Leading zero omitted, Abs format (unit mm)*
G04 Created by KiCad (PCBNEW (5.1.12)-1) date 2023-01-10 02:34:13*
%MOMM*%
%LPD*%
G01*
G04 APERTURE LIST*
%ADD10C,0.150000*%
%ADD11C,0.120000*%
G04 APERTURE END LIST*
D10*
X74755952Y-125563380D02*
X74755952Y-126277666D01*
X74708333Y-126420523D01*
X74613095Y-126515761D01*
X74470238Y-126563380D01*
X74375000Y-126563380D01*
X75708333Y-126563380D02*
X75232142Y-126563380D01*
X75232142Y-125563380D01*
X76613095Y-126468142D02*
X76565476Y-126515761D01*
X76422619Y-126563380D01*
X76327380Y-126563380D01*
X76184523Y-126515761D01*
X76089285Y-126420523D01*
X76041666Y-126325285D01*
X75994047Y-126134809D01*
X75994047Y-125991952D01*
X76041666Y-125801476D01*
X76089285Y-125706238D01*
X76184523Y-125611000D01*
X76327380Y-125563380D01*
X76422619Y-125563380D01*
X76565476Y-125611000D01*
X76613095Y-125658619D01*
X77327380Y-125563380D02*
X77327380Y-126277666D01*
X77279761Y-126420523D01*
X77184523Y-126515761D01*
X77041666Y-126563380D01*
X76946428Y-126563380D01*
X78279761Y-126563380D02*
X77803571Y-126563380D01*
X77803571Y-125563380D01*
X79184523Y-126468142D02*
X79136904Y-126515761D01*
X78994047Y-126563380D01*
X78898809Y-126563380D01*
X78755952Y-126515761D01*
X78660714Y-126420523D01*
X78613095Y-126325285D01*
X78565476Y-126134809D01*
X78565476Y-125991952D01*
X78613095Y-125801476D01*
X78660714Y-125706238D01*
X78755952Y-125611000D01*
X78898809Y-125563380D01*
X78994047Y-125563380D01*
X79136904Y-125611000D01*
X79184523Y-125658619D01*
X79898809Y-125563380D02*
X79898809Y-126277666D01*
X79851190Y-126420523D01*
X79755952Y-126515761D01*
X79613095Y-126563380D01*
X79517857Y-126563380D01*
X80851190Y-126563380D02*
X80375000Y-126563380D01*
X80375000Y-125563380D01*
X81755952Y-126468142D02*
X81708333Y-126515761D01*
X81565476Y-126563380D01*
X81470238Y-126563380D01*
X81327380Y-126515761D01*
X81232142Y-126420523D01*
X81184523Y-126325285D01*
X81136904Y-126134809D01*
X81136904Y-125991952D01*
X81184523Y-125801476D01*
X81232142Y-125706238D01*
X81327380Y-125611000D01*
X81470238Y-125563380D01*
X81565476Y-125563380D01*
X81708333Y-125611000D01*
X81755952Y-125658619D01*
X82470238Y-125563380D02*
X82470238Y-126277666D01*
X82422619Y-126420523D01*
X82327380Y-126515761D01*
X82184523Y-126563380D01*
X82089285Y-126563380D01*
X83422619Y-126563380D02*
X82946428Y-126563380D01*
X82946428Y-125563380D01*
X84327380Y-126468142D02*
X84279761Y-126515761D01*
X84136904Y-126563380D01*
X84041666Y-126563380D01*
X83898809Y-126515761D01*
X83803571Y-126420523D01*
X83755952Y-126325285D01*
X83708333Y-126134809D01*
X83708333Y-125991952D01*
X83755952Y-125801476D01*
X83803571Y-125706238D01*
X83898809Y-125611000D01*
X84041666Y-125563380D01*
X84136904Y-125563380D01*
X84279761Y-125611000D01*
X84327380Y-125658619D01*
X153694142Y-83129380D02*
X153694142Y-82129380D01*
X154170333Y-83129380D02*
X154170333Y-82129380D01*
X154741761Y-83129380D01*
X154741761Y-82129380D01*
X155075095Y-82129380D02*
X155646523Y-82129380D01*
X155360809Y-83129380D02*
X155360809Y-82129380D01*
X157217952Y-83129380D02*
X156741761Y-83129380D01*
X156741761Y-82129380D01*
X157551285Y-82605571D02*
X157884619Y-82605571D01*
X158027476Y-83129380D02*
X157551285Y-83129380D01*
X157551285Y-82129380D01*
X158027476Y-82129380D01*
X158456047Y-83129380D02*
X158456047Y-82129380D01*
X158694142Y-82129380D01*
X158837000Y-82177000D01*
X158932238Y-82272238D01*
X158979857Y-82367476D01*
X159027476Y-82557952D01*
X159027476Y-82700809D01*
X158979857Y-82891285D01*
X158932238Y-82986523D01*
X158837000Y-83081761D01*
X158694142Y-83129380D01*
X158456047Y-83129380D01*
X153654476Y-77525571D02*
X153987809Y-77525571D01*
X154130666Y-78049380D02*
X153654476Y-78049380D01*
X153654476Y-77049380D01*
X154130666Y-77049380D01*
X154464000Y-77049380D02*
X155130666Y-78049380D01*
X155130666Y-77049380D02*
X154464000Y-78049380D01*
X155368761Y-77049380D02*
X155940190Y-77049380D01*
X155654476Y-78049380D02*
X155654476Y-77049380D01*
X157511619Y-78049380D02*
X157035428Y-78049380D01*
X157035428Y-77049380D01*
X157844952Y-77525571D02*
X158178285Y-77525571D01*
X158321142Y-78049380D02*
X157844952Y-78049380D01*
X157844952Y-77049380D01*
X158321142Y-77049380D01*
X158749714Y-78049380D02*
X158749714Y-77049380D01*
X158987809Y-77049380D01*
X159130666Y-77097000D01*
X159225904Y-77192238D01*
X159273523Y-77287476D01*
X159321142Y-77477952D01*
X159321142Y-77620809D01*
X159273523Y-77811285D01*
X159225904Y-77906523D01*
X159130666Y-78001761D01*
X158987809Y-78049380D01*
X158749714Y-78049380D01*
X152908047Y-81732428D02*
X153669952Y-81732428D01*
X153289000Y-82113380D02*
X153289000Y-81351476D01*
X153289047Y-75255428D02*
X154050952Y-75255428D01*
X153670000Y-75636380D02*
X153670000Y-74874476D01*
X135232047Y-81923380D02*
X135232047Y-80923380D01*
X135803476Y-81923380D01*
X135803476Y-80923380D01*
X136232047Y-81637666D02*
X136708238Y-81637666D01*
X136136809Y-81923380D02*
X136470142Y-80923380D01*
X136803476Y-81923380D01*
X137470142Y-81399571D02*
X137613000Y-81447190D01*
X137660619Y-81494809D01*
X137708238Y-81590047D01*
X137708238Y-81732904D01*
X137660619Y-81828142D01*
X137613000Y-81875761D01*
X137517761Y-81923380D01*
X137136809Y-81923380D01*
X137136809Y-80923380D01*
X137470142Y-80923380D01*
X137565380Y-80971000D01*
X137613000Y-81018619D01*
X137660619Y-81113857D01*
X137660619Y-81209095D01*
X137613000Y-81304333D01*
X137565380Y-81351952D01*
X137470142Y-81399571D01*
X137136809Y-81399571D01*
X138136809Y-80923380D02*
X138136809Y-81732904D01*
X138184428Y-81828142D01*
X138232047Y-81875761D01*
X138327285Y-81923380D01*
X138517761Y-81923380D01*
X138613000Y-81875761D01*
X138660619Y-81828142D01*
X138708238Y-81732904D01*
X138708238Y-80923380D01*
X139184428Y-81542428D02*
X139946333Y-81542428D01*
X140422523Y-81923380D02*
X140422523Y-80923380D01*
X140898714Y-81923380D02*
X140898714Y-80923380D01*
X141136809Y-80923380D01*
X141279666Y-80971000D01*
X141374904Y-81066238D01*
X141422523Y-81161476D01*
X141470142Y-81351952D01*
X141470142Y-81494809D01*
X141422523Y-81685285D01*
X141374904Y-81780523D01*
X141279666Y-81875761D01*
X141136809Y-81923380D01*
X140898714Y-81923380D01*
X141898714Y-81399571D02*
X142232047Y-81399571D01*
X142374904Y-81923380D02*
X141898714Y-81923380D01*
X141898714Y-80923380D01*
X142374904Y-80923380D01*
X144136809Y-81923380D02*
X143803476Y-81447190D01*
X143565380Y-81923380D02*
X143565380Y-80923380D01*
X143946333Y-80923380D01*
X144041571Y-80971000D01*
X144089190Y-81018619D01*
X144136809Y-81113857D01*
X144136809Y-81256714D01*
X144089190Y-81351952D01*
X144041571Y-81399571D01*
X143946333Y-81447190D01*
X143565380Y-81447190D01*
X144565380Y-81399571D02*
X144898714Y-81399571D01*
X145041571Y-81923380D02*
X144565380Y-81923380D01*
X144565380Y-80923380D01*
X145041571Y-80923380D01*
X145327285Y-80923380D02*
X145660619Y-81923380D01*
X145993952Y-80923380D01*
X146327285Y-81828142D02*
X146374904Y-81875761D01*
X146327285Y-81923380D01*
X146279666Y-81875761D01*
X146327285Y-81828142D01*
X146327285Y-81923380D01*
X147755857Y-80923380D02*
X147851095Y-80923380D01*
X147946333Y-80971000D01*
X147993952Y-81018619D01*
X148041571Y-81113857D01*
X148089190Y-81304333D01*
X148089190Y-81542428D01*
X148041571Y-81732904D01*
X147993952Y-81828142D01*
X147946333Y-81875761D01*
X147851095Y-81923380D01*
X147755857Y-81923380D01*
X147660619Y-81875761D01*
X147613000Y-81828142D01*
X147565380Y-81732904D01*
X147517761Y-81542428D01*
X147517761Y-81304333D01*
X147565380Y-81113857D01*
X147613000Y-81018619D01*
X147660619Y-80971000D01*
X147755857Y-80923380D01*
X148470142Y-81018619D02*
X148517761Y-80971000D01*
X148613000Y-80923380D01*
X148851095Y-80923380D01*
X148946333Y-80971000D01*
X148993952Y-81018619D01*
X149041571Y-81113857D01*
X149041571Y-81209095D01*
X148993952Y-81351952D01*
X148422523Y-81923380D01*
X149041571Y-81923380D01*
X134255857Y-82668619D02*
X134303476Y-82621000D01*
X134398714Y-82573380D01*
X134636809Y-82573380D01*
X134732047Y-82621000D01*
X134779666Y-82668619D01*
X134827285Y-82763857D01*
X134827285Y-82859095D01*
X134779666Y-83001952D01*
X134208238Y-83573380D01*
X134827285Y-83573380D01*
X135446333Y-82573380D02*
X135541571Y-82573380D01*
X135636809Y-82621000D01*
X135684428Y-82668619D01*
X135732047Y-82763857D01*
X135779666Y-82954333D01*
X135779666Y-83192428D01*
X135732047Y-83382904D01*
X135684428Y-83478142D01*
X135636809Y-83525761D01*
X135541571Y-83573380D01*
X135446333Y-83573380D01*
X135351095Y-83525761D01*
X135303476Y-83478142D01*
X135255857Y-83382904D01*
X135208238Y-83192428D01*
X135208238Y-82954333D01*
X135255857Y-82763857D01*
X135303476Y-82668619D01*
X135351095Y-82621000D01*
X135446333Y-82573380D01*
X136160619Y-82668619D02*
X136208238Y-82621000D01*
X136303476Y-82573380D01*
X136541571Y-82573380D01*
X136636809Y-82621000D01*
X136684428Y-82668619D01*
X136732047Y-82763857D01*
X136732047Y-82859095D01*
X136684428Y-83001952D01*
X136113000Y-83573380D01*
X136732047Y-83573380D01*
X137113000Y-82668619D02*
X137160619Y-82621000D01*
X137255857Y-82573380D01*
X137493952Y-82573380D01*
X137589190Y-82621000D01*
X137636809Y-82668619D01*
X137684428Y-82763857D01*
X137684428Y-82859095D01*
X137636809Y-83001952D01*
X137065380Y-83573380D01*
X137684428Y-83573380D01*
X138160619Y-83525761D02*
X138160619Y-83573380D01*
X138113000Y-83668619D01*
X138065380Y-83716238D01*
X139874904Y-82621000D02*
X139779666Y-82573380D01*
X139636809Y-82573380D01*
X139493952Y-82621000D01*
X139398714Y-82716238D01*
X139351095Y-82811476D01*
X139303476Y-83001952D01*
X139303476Y-83144809D01*
X139351095Y-83335285D01*
X139398714Y-83430523D01*
X139493952Y-83525761D01*
X139636809Y-83573380D01*
X139732047Y-83573380D01*
X139874904Y-83525761D01*
X139922523Y-83478142D01*
X139922523Y-83144809D01*
X139732047Y-83144809D01*
X140779666Y-83573380D02*
X140779666Y-83049571D01*
X140732047Y-82954333D01*
X140636809Y-82906714D01*
X140446333Y-82906714D01*
X140351095Y-82954333D01*
X140779666Y-83525761D02*
X140684428Y-83573380D01*
X140446333Y-83573380D01*
X140351095Y-83525761D01*
X140303476Y-83430523D01*
X140303476Y-83335285D01*
X140351095Y-83240047D01*
X140446333Y-83192428D01*
X140684428Y-83192428D01*
X140779666Y-83144809D01*
X141160619Y-82906714D02*
X141398714Y-83573380D01*
X141636809Y-82906714D01*
X142017761Y-83573380D02*
X142017761Y-82906714D01*
X142017761Y-82573380D02*
X141970142Y-82621000D01*
X142017761Y-82668619D01*
X142065380Y-82621000D01*
X142017761Y-82573380D01*
X142017761Y-82668619D01*
X142493952Y-82906714D02*
X142493952Y-83573380D01*
X142493952Y-83001952D02*
X142541571Y-82954333D01*
X142636809Y-82906714D01*
X142779666Y-82906714D01*
X142874904Y-82954333D01*
X142922523Y-83049571D01*
X142922523Y-83573380D01*
X144017761Y-82573380D02*
X144589190Y-82573380D01*
X144303476Y-83573380D02*
X144303476Y-82573380D01*
X145303476Y-83525761D02*
X145208238Y-83573380D01*
X145017761Y-83573380D01*
X144922523Y-83525761D01*
X144874904Y-83430523D01*
X144874904Y-83049571D01*
X144922523Y-82954333D01*
X145017761Y-82906714D01*
X145208238Y-82906714D01*
X145303476Y-82954333D01*
X145351095Y-83049571D01*
X145351095Y-83144809D01*
X144874904Y-83240047D01*
X145779666Y-83573380D02*
X145779666Y-82906714D01*
X145779666Y-83097190D02*
X145827285Y-83001952D01*
X145874904Y-82954333D01*
X145970142Y-82906714D01*
X146065380Y-82906714D01*
X146351095Y-83525761D02*
X146446333Y-83573380D01*
X146636809Y-83573380D01*
X146732047Y-83525761D01*
X146779666Y-83430523D01*
X146779666Y-83382904D01*
X146732047Y-83287666D01*
X146636809Y-83240047D01*
X146493952Y-83240047D01*
X146398714Y-83192428D01*
X146351095Y-83097190D01*
X146351095Y-83049571D01*
X146398714Y-82954333D01*
X146493952Y-82906714D01*
X146636809Y-82906714D01*
X146732047Y-82954333D01*
X147065380Y-82906714D02*
X147446333Y-82906714D01*
X147208238Y-82573380D02*
X147208238Y-83430523D01*
X147255857Y-83525761D01*
X147351095Y-83573380D01*
X147446333Y-83573380D01*
X148160619Y-83525761D02*
X148065380Y-83573380D01*
X147874904Y-83573380D01*
X147779666Y-83525761D01*
X147732047Y-83430523D01*
X147732047Y-83049571D01*
X147779666Y-82954333D01*
X147874904Y-82906714D01*
X148065380Y-82906714D01*
X148160619Y-82954333D01*
X148208238Y-83049571D01*
X148208238Y-83144809D01*
X147732047Y-83240047D01*
X149017761Y-83525761D02*
X148922523Y-83573380D01*
X148732047Y-83573380D01*
X148636809Y-83525761D01*
X148589190Y-83430523D01*
X148589190Y-83049571D01*
X148636809Y-82954333D01*
X148732047Y-82906714D01*
X148922523Y-82906714D01*
X149017761Y-82954333D01*
X149065380Y-83049571D01*
X149065380Y-83144809D01*
X148589190Y-83240047D01*
X149922523Y-82906714D02*
X149922523Y-83716238D01*
X149874904Y-83811476D01*
X149827285Y-83859095D01*
X149732047Y-83906714D01*
X149589190Y-83906714D01*
X149493952Y-83859095D01*
X149922523Y-83525761D02*
X149827285Y-83573380D01*
X149636809Y-83573380D01*
X149541571Y-83525761D01*
X149493952Y-83478142D01*
X149446333Y-83382904D01*
X149446333Y-83097190D01*
X149493952Y-83001952D01*
X149541571Y-82954333D01*
X149636809Y-82906714D01*
X149827285Y-82906714D01*
X149922523Y-82954333D01*
D11*
%TO.C,C9*%
X151702000Y-74041000D02*
G75*
G03*
X151702000Y-74041000I-2620000J0D01*
G01*
X149082000Y-75081000D02*
X149082000Y-76621000D01*
X149082000Y-71461000D02*
X149082000Y-73001000D01*
X149122000Y-75081000D02*
X149122000Y-76621000D01*
X149122000Y-71461000D02*
X149122000Y-73001000D01*
X149162000Y-71462000D02*
X149162000Y-73001000D01*
X149162000Y-75081000D02*
X149162000Y-76620000D01*
X149202000Y-71463000D02*
X149202000Y-73001000D01*
X149202000Y-75081000D02*
X149202000Y-76619000D01*
X149242000Y-71465000D02*
X149242000Y-73001000D01*
X149242000Y-75081000D02*
X149242000Y-76617000D01*
X149282000Y-71468000D02*
X149282000Y-73001000D01*
X149282000Y-75081000D02*
X149282000Y-76614000D01*
X149322000Y-71472000D02*
X149322000Y-73001000D01*
X149322000Y-75081000D02*
X149322000Y-76610000D01*
X149362000Y-71476000D02*
X149362000Y-73001000D01*
X149362000Y-75081000D02*
X149362000Y-76606000D01*
X149402000Y-71480000D02*
X149402000Y-73001000D01*
X149402000Y-75081000D02*
X149402000Y-76602000D01*
X149442000Y-71485000D02*
X149442000Y-73001000D01*
X149442000Y-75081000D02*
X149442000Y-76597000D01*
X149482000Y-71491000D02*
X149482000Y-73001000D01*
X149482000Y-75081000D02*
X149482000Y-76591000D01*
X149522000Y-71498000D02*
X149522000Y-73001000D01*
X149522000Y-75081000D02*
X149522000Y-76584000D01*
X149562000Y-71505000D02*
X149562000Y-73001000D01*
X149562000Y-75081000D02*
X149562000Y-76577000D01*
X149602000Y-71513000D02*
X149602000Y-73001000D01*
X149602000Y-75081000D02*
X149602000Y-76569000D01*
X149642000Y-71521000D02*
X149642000Y-73001000D01*
X149642000Y-75081000D02*
X149642000Y-76561000D01*
X149682000Y-71530000D02*
X149682000Y-73001000D01*
X149682000Y-75081000D02*
X149682000Y-76552000D01*
X149722000Y-71540000D02*
X149722000Y-73001000D01*
X149722000Y-75081000D02*
X149722000Y-76542000D01*
X149762000Y-71550000D02*
X149762000Y-73001000D01*
X149762000Y-75081000D02*
X149762000Y-76532000D01*
X149803000Y-71561000D02*
X149803000Y-73001000D01*
X149803000Y-75081000D02*
X149803000Y-76521000D01*
X149843000Y-71573000D02*
X149843000Y-73001000D01*
X149843000Y-75081000D02*
X149843000Y-76509000D01*
X149883000Y-71586000D02*
X149883000Y-73001000D01*
X149883000Y-75081000D02*
X149883000Y-76496000D01*
X149923000Y-71599000D02*
X149923000Y-73001000D01*
X149923000Y-75081000D02*
X149923000Y-76483000D01*
X149963000Y-71613000D02*
X149963000Y-73001000D01*
X149963000Y-75081000D02*
X149963000Y-76469000D01*
X150003000Y-71627000D02*
X150003000Y-73001000D01*
X150003000Y-75081000D02*
X150003000Y-76455000D01*
X150043000Y-71643000D02*
X150043000Y-73001000D01*
X150043000Y-75081000D02*
X150043000Y-76439000D01*
X150083000Y-71659000D02*
X150083000Y-73001000D01*
X150083000Y-75081000D02*
X150083000Y-76423000D01*
X150123000Y-71676000D02*
X150123000Y-73001000D01*
X150123000Y-75081000D02*
X150123000Y-76406000D01*
X150163000Y-71693000D02*
X150163000Y-73001000D01*
X150163000Y-75081000D02*
X150163000Y-76389000D01*
X150203000Y-71712000D02*
X150203000Y-73001000D01*
X150203000Y-75081000D02*
X150203000Y-76370000D01*
X150243000Y-71731000D02*
X150243000Y-73001000D01*
X150243000Y-75081000D02*
X150243000Y-76351000D01*
X150283000Y-71751000D02*
X150283000Y-73001000D01*
X150283000Y-75081000D02*
X150283000Y-76331000D01*
X150323000Y-71773000D02*
X150323000Y-73001000D01*
X150323000Y-75081000D02*
X150323000Y-76309000D01*
X150363000Y-71794000D02*
X150363000Y-73001000D01*
X150363000Y-75081000D02*
X150363000Y-76288000D01*
X150403000Y-71817000D02*
X150403000Y-73001000D01*
X150403000Y-75081000D02*
X150403000Y-76265000D01*
X150443000Y-71841000D02*
X150443000Y-73001000D01*
X150443000Y-75081000D02*
X150443000Y-76241000D01*
X150483000Y-71866000D02*
X150483000Y-73001000D01*
X150483000Y-75081000D02*
X150483000Y-76216000D01*
X150523000Y-71892000D02*
X150523000Y-73001000D01*
X150523000Y-75081000D02*
X150523000Y-76190000D01*
X150563000Y-71919000D02*
X150563000Y-73001000D01*
X150563000Y-75081000D02*
X150563000Y-76163000D01*
X150603000Y-71946000D02*
X150603000Y-73001000D01*
X150603000Y-75081000D02*
X150603000Y-76136000D01*
X150643000Y-71976000D02*
X150643000Y-73001000D01*
X150643000Y-75081000D02*
X150643000Y-76106000D01*
X150683000Y-72006000D02*
X150683000Y-73001000D01*
X150683000Y-75081000D02*
X150683000Y-76076000D01*
X150723000Y-72037000D02*
X150723000Y-73001000D01*
X150723000Y-75081000D02*
X150723000Y-76045000D01*
X150763000Y-72070000D02*
X150763000Y-73001000D01*
X150763000Y-75081000D02*
X150763000Y-76012000D01*
X150803000Y-72104000D02*
X150803000Y-73001000D01*
X150803000Y-75081000D02*
X150803000Y-75978000D01*
X150843000Y-72140000D02*
X150843000Y-73001000D01*
X150843000Y-75081000D02*
X150843000Y-75942000D01*
X150883000Y-72177000D02*
X150883000Y-73001000D01*
X150883000Y-75081000D02*
X150883000Y-75905000D01*
X150923000Y-72215000D02*
X150923000Y-73001000D01*
X150923000Y-75081000D02*
X150923000Y-75867000D01*
X150963000Y-72256000D02*
X150963000Y-73001000D01*
X150963000Y-75081000D02*
X150963000Y-75826000D01*
X151003000Y-72298000D02*
X151003000Y-73001000D01*
X151003000Y-75081000D02*
X151003000Y-75784000D01*
X151043000Y-72342000D02*
X151043000Y-73001000D01*
X151043000Y-75081000D02*
X151043000Y-75740000D01*
X151083000Y-72388000D02*
X151083000Y-73001000D01*
X151083000Y-75081000D02*
X151083000Y-75694000D01*
X151123000Y-72436000D02*
X151123000Y-75646000D01*
X151163000Y-72487000D02*
X151163000Y-75595000D01*
X151203000Y-72541000D02*
X151203000Y-75541000D01*
X151243000Y-72598000D02*
X151243000Y-75484000D01*
X151283000Y-72658000D02*
X151283000Y-75424000D01*
X151323000Y-72722000D02*
X151323000Y-75360000D01*
X151363000Y-72790000D02*
X151363000Y-75292000D01*
X151403000Y-72863000D02*
X151403000Y-75219000D01*
X151443000Y-72943000D02*
X151443000Y-75139000D01*
X151483000Y-73030000D02*
X151483000Y-75052000D01*
X151523000Y-73126000D02*
X151523000Y-74956000D01*
X151563000Y-73236000D02*
X151563000Y-74846000D01*
X151603000Y-73364000D02*
X151603000Y-74718000D01*
X151643000Y-73523000D02*
X151643000Y-74559000D01*
X151683000Y-73757000D02*
X151683000Y-74325000D01*
X146277225Y-72566000D02*
X146777225Y-72566000D01*
X146527225Y-72316000D02*
X146527225Y-72816000D01*
%TO.C,U8*%
X125238000Y-93158000D02*
X123588000Y-93158000D01*
X123588000Y-93158000D02*
X123588000Y-118678000D01*
X123588000Y-118678000D02*
X128888000Y-118678000D01*
X128888000Y-118678000D02*
X128888000Y-93158000D01*
X128888000Y-93158000D02*
X127238000Y-93158000D01*
X127238000Y-93158000D02*
G75*
G02*
X125238000Y-93158000I-1000000J0D01*
G01*
%TO.C,C10*%
X123578000Y-89562000D02*
X128818000Y-89562000D01*
X123578000Y-92302000D02*
X128818000Y-92302000D01*
X123578000Y-89562000D02*
X123578000Y-89877000D01*
X123578000Y-91987000D02*
X123578000Y-92302000D01*
X128818000Y-89562000D02*
X128818000Y-89877000D01*
X128818000Y-91987000D02*
X128818000Y-92302000D01*
%TO.C,J2*%
X144212000Y-131756000D02*
X144212000Y-123126000D01*
X144093905Y-131756000D02*
X144093905Y-123126000D01*
X143975810Y-131756000D02*
X143975810Y-123126000D01*
X143857715Y-131756000D02*
X143857715Y-123126000D01*
X143739620Y-131756000D02*
X143739620Y-123126000D01*
X143621525Y-131756000D02*
X143621525Y-123126000D01*
X143503430Y-131756000D02*
X143503430Y-123126000D01*
X143385335Y-131756000D02*
X143385335Y-123126000D01*
X143267240Y-131756000D02*
X143267240Y-123126000D01*
X143149145Y-131756000D02*
X143149145Y-123126000D01*
X143031050Y-131756000D02*
X143031050Y-123126000D01*
X142912955Y-131756000D02*
X142912955Y-123126000D01*
X142794860Y-131756000D02*
X142794860Y-123126000D01*
X142676765Y-131756000D02*
X142676765Y-123126000D01*
X142558670Y-131756000D02*
X142558670Y-123126000D01*
X142440575Y-131756000D02*
X142440575Y-123126000D01*
X142322480Y-131756000D02*
X142322480Y-123126000D01*
X142204385Y-131756000D02*
X142204385Y-123126000D01*
X142086290Y-131756000D02*
X142086290Y-123126000D01*
X141968195Y-131756000D02*
X141968195Y-123126000D01*
X141850100Y-131756000D02*
X141850100Y-123126000D01*
X143362000Y-123126000D02*
X143362000Y-122776000D01*
X142642000Y-123126000D02*
X142642000Y-122776000D01*
X140822000Y-123126000D02*
X140822000Y-122716000D01*
X140102000Y-123126000D02*
X140102000Y-122716000D01*
X138282000Y-123126000D02*
X138282000Y-122716000D01*
X137562000Y-123126000D02*
X137562000Y-122716000D01*
X135742000Y-123126000D02*
X135742000Y-122716000D01*
X135022000Y-123126000D02*
X135022000Y-122716000D01*
X133202000Y-123126000D02*
X133202000Y-122716000D01*
X132482000Y-123126000D02*
X132482000Y-122716000D01*
X130662000Y-123126000D02*
X130662000Y-122716000D01*
X129942000Y-123126000D02*
X129942000Y-122716000D01*
X128122000Y-123126000D02*
X128122000Y-122716000D01*
X127402000Y-123126000D02*
X127402000Y-122716000D01*
X125582000Y-123126000D02*
X125582000Y-122716000D01*
X124862000Y-123126000D02*
X124862000Y-122716000D01*
X123042000Y-123126000D02*
X123042000Y-122716000D01*
X122322000Y-123126000D02*
X122322000Y-122716000D01*
X120502000Y-123126000D02*
X120502000Y-122716000D01*
X119782000Y-123126000D02*
X119782000Y-122716000D01*
X117962000Y-123126000D02*
X117962000Y-122716000D01*
X117242000Y-123126000D02*
X117242000Y-122716000D01*
X115422000Y-123126000D02*
X115422000Y-122716000D01*
X114702000Y-123126000D02*
X114702000Y-122716000D01*
X112882000Y-123126000D02*
X112882000Y-122716000D01*
X112162000Y-123126000D02*
X112162000Y-122716000D01*
X110342000Y-123126000D02*
X110342000Y-122716000D01*
X109622000Y-123126000D02*
X109622000Y-122716000D01*
X107802000Y-123126000D02*
X107802000Y-122716000D01*
X107082000Y-123126000D02*
X107082000Y-122716000D01*
X105262000Y-123126000D02*
X105262000Y-122716000D01*
X104542000Y-123126000D02*
X104542000Y-122716000D01*
X102722000Y-123126000D02*
X102722000Y-122716000D01*
X102002000Y-123126000D02*
X102002000Y-122716000D01*
X100182000Y-123126000D02*
X100182000Y-122716000D01*
X99462000Y-123126000D02*
X99462000Y-122716000D01*
X97642000Y-123126000D02*
X97642000Y-122716000D01*
X96922000Y-123126000D02*
X96922000Y-122716000D01*
X95102000Y-123126000D02*
X95102000Y-122716000D01*
X94382000Y-123126000D02*
X94382000Y-122716000D01*
X92562000Y-123126000D02*
X92562000Y-122716000D01*
X91842000Y-123126000D02*
X91842000Y-122716000D01*
X90022000Y-123126000D02*
X90022000Y-122716000D01*
X89302000Y-123126000D02*
X89302000Y-122716000D01*
X87482000Y-123126000D02*
X87482000Y-122716000D01*
X86762000Y-123126000D02*
X86762000Y-122716000D01*
X84942000Y-123126000D02*
X84942000Y-122716000D01*
X84222000Y-123126000D02*
X84222000Y-122716000D01*
X82402000Y-123126000D02*
X82402000Y-122716000D01*
X81682000Y-123126000D02*
X81682000Y-122716000D01*
X79862000Y-123126000D02*
X79862000Y-122716000D01*
X79142000Y-123126000D02*
X79142000Y-122716000D01*
X77322000Y-123126000D02*
X77322000Y-122716000D01*
X76602000Y-123126000D02*
X76602000Y-122716000D01*
X74782000Y-123126000D02*
X74782000Y-122716000D01*
X74062000Y-123126000D02*
X74062000Y-122716000D01*
X72242000Y-123126000D02*
X72242000Y-122716000D01*
X71522000Y-123126000D02*
X71522000Y-122716000D01*
X69702000Y-123126000D02*
X69702000Y-122716000D01*
X68982000Y-123126000D02*
X68982000Y-122716000D01*
X141732000Y-131756000D02*
X141732000Y-123126000D01*
X139192000Y-131756000D02*
X139192000Y-123126000D01*
X136652000Y-131756000D02*
X136652000Y-123126000D01*
X134112000Y-131756000D02*
X134112000Y-123126000D01*
X131572000Y-131756000D02*
X131572000Y-123126000D01*
X129032000Y-131756000D02*
X129032000Y-123126000D01*
X126492000Y-131756000D02*
X126492000Y-123126000D01*
X123952000Y-131756000D02*
X123952000Y-123126000D01*
X121412000Y-131756000D02*
X121412000Y-123126000D01*
X118872000Y-131756000D02*
X118872000Y-123126000D01*
X116332000Y-131756000D02*
X116332000Y-123126000D01*
X113792000Y-131756000D02*
X113792000Y-123126000D01*
X111252000Y-131756000D02*
X111252000Y-123126000D01*
X108712000Y-131756000D02*
X108712000Y-123126000D01*
X106172000Y-131756000D02*
X106172000Y-123126000D01*
X103632000Y-131756000D02*
X103632000Y-123126000D01*
X101092000Y-131756000D02*
X101092000Y-123126000D01*
X98552000Y-131756000D02*
X98552000Y-123126000D01*
X96012000Y-131756000D02*
X96012000Y-123126000D01*
X93472000Y-131756000D02*
X93472000Y-123126000D01*
X90932000Y-131756000D02*
X90932000Y-123126000D01*
X88392000Y-131756000D02*
X88392000Y-123126000D01*
X85852000Y-131756000D02*
X85852000Y-123126000D01*
X83312000Y-131756000D02*
X83312000Y-123126000D01*
X80772000Y-131756000D02*
X80772000Y-123126000D01*
X78232000Y-131756000D02*
X78232000Y-123126000D01*
X75692000Y-131756000D02*
X75692000Y-123126000D01*
X73152000Y-131756000D02*
X73152000Y-123126000D01*
X70612000Y-131756000D02*
X70612000Y-123126000D01*
X144332000Y-131756000D02*
X144332000Y-123126000D01*
X144332000Y-123126000D02*
X68012000Y-123126000D01*
X68012000Y-131756000D02*
X68012000Y-123126000D01*
X144332000Y-131756000D02*
X68012000Y-131756000D01*
X144332000Y-120556000D02*
X143002000Y-120556000D01*
X144332000Y-121666000D02*
X144332000Y-120556000D01*
%TO.C,C1*%
X139199000Y-90197000D02*
X144439000Y-90197000D01*
X139199000Y-92937000D02*
X144439000Y-92937000D01*
X139199000Y-90197000D02*
X139199000Y-90512000D01*
X139199000Y-92622000D02*
X139199000Y-92937000D01*
X144439000Y-90197000D02*
X144439000Y-90512000D01*
X144439000Y-92622000D02*
X144439000Y-92937000D01*
%TO.C,C2*%
X93512000Y-91987000D02*
X93512000Y-92302000D01*
X93512000Y-89562000D02*
X93512000Y-89877000D01*
X88272000Y-91987000D02*
X88272000Y-92302000D01*
X88272000Y-89562000D02*
X88272000Y-89877000D01*
X88272000Y-92302000D02*
X93512000Y-92302000D01*
X88272000Y-89562000D02*
X93512000Y-89562000D01*
%TO.C,C3*%
X70492000Y-89435000D02*
X75732000Y-89435000D01*
X70492000Y-92175000D02*
X75732000Y-92175000D01*
X70492000Y-89435000D02*
X70492000Y-89750000D01*
X70492000Y-91860000D02*
X70492000Y-92175000D01*
X75732000Y-89435000D02*
X75732000Y-89750000D01*
X75732000Y-91860000D02*
X75732000Y-92175000D01*
%TO.C,C4*%
X111292000Y-91987000D02*
X111292000Y-92302000D01*
X111292000Y-89562000D02*
X111292000Y-89877000D01*
X106052000Y-91987000D02*
X106052000Y-92302000D01*
X106052000Y-89562000D02*
X106052000Y-89877000D01*
X106052000Y-92302000D02*
X111292000Y-92302000D01*
X106052000Y-89562000D02*
X111292000Y-89562000D01*
%TO.C,C5*%
X106052000Y-66702000D02*
X111292000Y-66702000D01*
X106052000Y-69442000D02*
X111292000Y-69442000D01*
X106052000Y-66702000D02*
X106052000Y-67017000D01*
X106052000Y-69127000D02*
X106052000Y-69442000D01*
X111292000Y-66702000D02*
X111292000Y-67017000D01*
X111292000Y-69127000D02*
X111292000Y-69442000D01*
%TO.C,C6*%
X75605000Y-69127000D02*
X75605000Y-69442000D01*
X75605000Y-66702000D02*
X75605000Y-67017000D01*
X70365000Y-69127000D02*
X70365000Y-69442000D01*
X70365000Y-66702000D02*
X70365000Y-67017000D01*
X70365000Y-69442000D02*
X75605000Y-69442000D01*
X70365000Y-66702000D02*
X75605000Y-66702000D01*
%TO.C,C7*%
X123578000Y-66702000D02*
X128818000Y-66702000D01*
X123578000Y-69442000D02*
X128818000Y-69442000D01*
X123578000Y-66702000D02*
X123578000Y-67017000D01*
X123578000Y-69127000D02*
X123578000Y-69442000D01*
X128818000Y-66702000D02*
X128818000Y-67017000D01*
X128818000Y-69127000D02*
X128818000Y-69442000D01*
%TO.C,C8*%
X93385000Y-69127000D02*
X93385000Y-69442000D01*
X93385000Y-66702000D02*
X93385000Y-67017000D01*
X88145000Y-69127000D02*
X88145000Y-69442000D01*
X88145000Y-66702000D02*
X88145000Y-67017000D01*
X88145000Y-69442000D02*
X93385000Y-69442000D01*
X88145000Y-66702000D02*
X93385000Y-66702000D01*
%TO.C,D1*%
X157643000Y-75277000D02*
X157643000Y-75121000D01*
X157643000Y-72961000D02*
X157643000Y-72805000D01*
X154410665Y-75119608D02*
G75*
G03*
X157643000Y-75276516I1672335J1078608D01*
G01*
X154410665Y-72962392D02*
G75*
G02*
X157643000Y-72805484I1672335J-1078608D01*
G01*
X155041870Y-75120837D02*
G75*
G03*
X157123961Y-75121000I1041130J1079837D01*
G01*
X155041870Y-72961163D02*
G75*
G02*
X157123961Y-72961000I1041130J-1079837D01*
G01*
%TO.C,J1*%
X165814000Y-96121000D02*
X174934000Y-96121000D01*
X165814000Y-100221000D02*
X174934000Y-100221000D01*
X165814000Y-68831000D02*
X174934000Y-68831000D01*
X174934000Y-68831000D02*
X174934000Y-127511000D01*
X174934000Y-127511000D02*
X165814000Y-127511000D01*
X165814000Y-127511000D02*
X165814000Y-68831000D01*
X160194000Y-74041000D02*
X159194000Y-73541000D01*
X159194000Y-73541000D02*
X159194000Y-74541000D01*
X159194000Y-74541000D02*
X160194000Y-74041000D01*
%TO.C,J3*%
X144205000Y-58868000D02*
X144205000Y-60198000D01*
X142875000Y-58868000D02*
X144205000Y-58868000D01*
X141605000Y-58868000D02*
X141605000Y-61528000D01*
X141605000Y-61528000D02*
X67885000Y-61528000D01*
X141605000Y-58868000D02*
X67885000Y-58868000D01*
X67885000Y-58868000D02*
X67885000Y-61528000D01*
%TO.C,J4*%
X67885000Y-62678000D02*
X67885000Y-65338000D01*
X141605000Y-62678000D02*
X67885000Y-62678000D01*
X141605000Y-65338000D02*
X67885000Y-65338000D01*
X141605000Y-62678000D02*
X141605000Y-65338000D01*
X142875000Y-62678000D02*
X144205000Y-62678000D01*
X144205000Y-62678000D02*
X144205000Y-64008000D01*
%TO.C,J5*%
X166612000Y-67831000D02*
X146732000Y-67831000D01*
X146732000Y-67831000D02*
X146732000Y-58606000D01*
X146732000Y-58606000D02*
X148637000Y-58606000D01*
X148637000Y-58606000D02*
X148637000Y-57601000D01*
X148637000Y-57601000D02*
X164707000Y-57601000D01*
X164707000Y-57601000D02*
X164707000Y-58606000D01*
X164707000Y-58606000D02*
X166612000Y-58606000D01*
X166612000Y-58606000D02*
X166612000Y-67831000D01*
X166902000Y-64611000D02*
X166902000Y-60611000D01*
X164592000Y-57601000D02*
X164592000Y-58601000D01*
X164592000Y-58601000D02*
X148752000Y-58601000D01*
X148752000Y-58601000D02*
X148752000Y-57601000D01*
X164592000Y-58601000D02*
X164592000Y-60271000D01*
X164592000Y-60271000D02*
X148752000Y-60271000D01*
X148752000Y-60271000D02*
X148752000Y-58601000D01*
X165392000Y-67831000D02*
X165392000Y-67231000D01*
X165392000Y-67231000D02*
X163792000Y-67231000D01*
X163792000Y-67231000D02*
X163792000Y-67831000D01*
X161432000Y-67831000D02*
X161432000Y-67231000D01*
X161432000Y-67231000D02*
X159832000Y-67231000D01*
X159832000Y-67231000D02*
X159832000Y-67831000D01*
X157472000Y-67831000D02*
X157472000Y-67231000D01*
X157472000Y-67231000D02*
X155872000Y-67231000D01*
X155872000Y-67231000D02*
X155872000Y-67831000D01*
X153512000Y-67831000D02*
X153512000Y-67231000D01*
X153512000Y-67231000D02*
X151912000Y-67231000D01*
X151912000Y-67231000D02*
X151912000Y-67831000D01*
X149552000Y-67831000D02*
X149552000Y-67231000D01*
X149552000Y-67231000D02*
X147952000Y-67231000D01*
X147952000Y-67231000D02*
X147952000Y-67831000D01*
%TO.C,JP1*%
X153737000Y-78553000D02*
X153737000Y-81213000D01*
X156337000Y-78553000D02*
X153737000Y-78553000D01*
X156337000Y-81213000D02*
X153737000Y-81213000D01*
X156337000Y-78553000D02*
X156337000Y-81213000D01*
X157607000Y-78553000D02*
X158937000Y-78553000D01*
X158937000Y-78553000D02*
X158937000Y-79883000D01*
%TO.C,JP2*%
X158937000Y-83633000D02*
X158937000Y-84963000D01*
X157607000Y-83633000D02*
X158937000Y-83633000D01*
X156337000Y-83633000D02*
X156337000Y-86293000D01*
X156337000Y-86293000D02*
X153737000Y-86293000D01*
X156337000Y-83633000D02*
X153737000Y-83633000D01*
X153737000Y-83633000D02*
X153737000Y-86293000D01*
%TO.C,R1*%
X138462000Y-94337000D02*
X138462000Y-94007000D01*
X138462000Y-94007000D02*
X145002000Y-94007000D01*
X145002000Y-94007000D02*
X145002000Y-94337000D01*
X138462000Y-96417000D02*
X138462000Y-96747000D01*
X138462000Y-96747000D02*
X145002000Y-96747000D01*
X145002000Y-96747000D02*
X145002000Y-96417000D01*
%TO.C,R2*%
X145002000Y-101497000D02*
X145002000Y-101827000D01*
X145002000Y-101827000D02*
X138462000Y-101827000D01*
X138462000Y-101827000D02*
X138462000Y-101497000D01*
X145002000Y-99417000D02*
X145002000Y-99087000D01*
X145002000Y-99087000D02*
X138462000Y-99087000D01*
X138462000Y-99087000D02*
X138462000Y-99417000D01*
%TO.C,R3*%
X138462000Y-104167000D02*
X138462000Y-104497000D01*
X145002000Y-104167000D02*
X138462000Y-104167000D01*
X145002000Y-104497000D02*
X145002000Y-104167000D01*
X138462000Y-106907000D02*
X138462000Y-106577000D01*
X145002000Y-106907000D02*
X138462000Y-106907000D01*
X145002000Y-106577000D02*
X145002000Y-106907000D01*
%TO.C,R4*%
X145002000Y-111530000D02*
X145002000Y-111860000D01*
X145002000Y-111860000D02*
X138462000Y-111860000D01*
X138462000Y-111860000D02*
X138462000Y-111530000D01*
X145002000Y-109450000D02*
X145002000Y-109120000D01*
X145002000Y-109120000D02*
X138462000Y-109120000D01*
X138462000Y-109120000D02*
X138462000Y-109450000D01*
%TO.C,R5*%
X157067000Y-96747000D02*
X157067000Y-96417000D01*
X150527000Y-96747000D02*
X157067000Y-96747000D01*
X150527000Y-96417000D02*
X150527000Y-96747000D01*
X157067000Y-94007000D02*
X157067000Y-94337000D01*
X150527000Y-94007000D02*
X157067000Y-94007000D01*
X150527000Y-94337000D02*
X150527000Y-94007000D01*
%TO.C,R6*%
X157067000Y-101827000D02*
X157067000Y-101497000D01*
X150527000Y-101827000D02*
X157067000Y-101827000D01*
X150527000Y-101497000D02*
X150527000Y-101827000D01*
X157067000Y-99087000D02*
X157067000Y-99417000D01*
X150527000Y-99087000D02*
X157067000Y-99087000D01*
X150527000Y-99417000D02*
X150527000Y-99087000D01*
%TO.C,R7*%
X157067000Y-106577000D02*
X157067000Y-106907000D01*
X157067000Y-106907000D02*
X150527000Y-106907000D01*
X150527000Y-106907000D02*
X150527000Y-106577000D01*
X157067000Y-104497000D02*
X157067000Y-104167000D01*
X157067000Y-104167000D02*
X150527000Y-104167000D01*
X150527000Y-104167000D02*
X150527000Y-104497000D01*
%TO.C,R8*%
X150527000Y-109247000D02*
X150527000Y-109577000D01*
X157067000Y-109247000D02*
X150527000Y-109247000D01*
X157067000Y-109577000D02*
X157067000Y-109247000D01*
X150527000Y-111987000D02*
X150527000Y-111657000D01*
X157067000Y-111987000D02*
X150527000Y-111987000D01*
X157067000Y-111657000D02*
X157067000Y-111987000D01*
%TO.C,U1*%
X93582000Y-93158000D02*
X91932000Y-93158000D01*
X93582000Y-118678000D02*
X93582000Y-93158000D01*
X88282000Y-118678000D02*
X93582000Y-118678000D01*
X88282000Y-93158000D02*
X88282000Y-118678000D01*
X89932000Y-93158000D02*
X88282000Y-93158000D01*
X91932000Y-93158000D02*
G75*
G02*
X89932000Y-93158000I-1000000J0D01*
G01*
%TO.C,U2*%
X128888000Y-70298000D02*
X127238000Y-70298000D01*
X128888000Y-88198000D02*
X128888000Y-70298000D01*
X123588000Y-88198000D02*
X128888000Y-88198000D01*
X123588000Y-70298000D02*
X123588000Y-88198000D01*
X125238000Y-70298000D02*
X123588000Y-70298000D01*
X127238000Y-70298000D02*
G75*
G02*
X125238000Y-70298000I-1000000J0D01*
G01*
%TO.C,U3*%
X72025000Y-70298000D02*
X70375000Y-70298000D01*
X70375000Y-70298000D02*
X70375000Y-88198000D01*
X70375000Y-88198000D02*
X75675000Y-88198000D01*
X75675000Y-88198000D02*
X75675000Y-70298000D01*
X75675000Y-70298000D02*
X74025000Y-70298000D01*
X74025000Y-70298000D02*
G75*
G02*
X72025000Y-70298000I-1000000J0D01*
G01*
%TO.C,U4*%
X111362000Y-70298000D02*
X109712000Y-70298000D01*
X111362000Y-88198000D02*
X111362000Y-70298000D01*
X106062000Y-88198000D02*
X111362000Y-88198000D01*
X106062000Y-70298000D02*
X106062000Y-88198000D01*
X107712000Y-70298000D02*
X106062000Y-70298000D01*
X109712000Y-70298000D02*
G75*
G02*
X107712000Y-70298000I-1000000J0D01*
G01*
%TO.C,U5*%
X89805000Y-70298000D02*
X88155000Y-70298000D01*
X88155000Y-70298000D02*
X88155000Y-88198000D01*
X88155000Y-88198000D02*
X93455000Y-88198000D01*
X93455000Y-88198000D02*
X93455000Y-70298000D01*
X93455000Y-70298000D02*
X91805000Y-70298000D01*
X91805000Y-70298000D02*
G75*
G02*
X89805000Y-70298000I-1000000J0D01*
G01*
%TO.C,U6*%
X72152000Y-93158000D02*
X70502000Y-93158000D01*
X70502000Y-93158000D02*
X70502000Y-118678000D01*
X70502000Y-118678000D02*
X75802000Y-118678000D01*
X75802000Y-118678000D02*
X75802000Y-93158000D01*
X75802000Y-93158000D02*
X74152000Y-93158000D01*
X74152000Y-93158000D02*
G75*
G02*
X72152000Y-93158000I-1000000J0D01*
G01*
%TO.C,U7*%
X107712000Y-93158000D02*
X106062000Y-93158000D01*
X106062000Y-93158000D02*
X106062000Y-118678000D01*
X106062000Y-118678000D02*
X111362000Y-118678000D01*
X111362000Y-118678000D02*
X111362000Y-93158000D01*
X111362000Y-93158000D02*
X109712000Y-93158000D01*
X109712000Y-93158000D02*
G75*
G02*
X107712000Y-93158000I-1000000J0D01*
G01*
%TO.C,C9*%
D10*
X148915333Y-70648142D02*
X148867714Y-70695761D01*
X148724857Y-70743380D01*
X148629619Y-70743380D01*
X148486761Y-70695761D01*
X148391523Y-70600523D01*
X148343904Y-70505285D01*
X148296285Y-70314809D01*
X148296285Y-70171952D01*
X148343904Y-69981476D01*
X148391523Y-69886238D01*
X148486761Y-69791000D01*
X148629619Y-69743380D01*
X148724857Y-69743380D01*
X148867714Y-69791000D01*
X148915333Y-69838619D01*
X149391523Y-70743380D02*
X149582000Y-70743380D01*
X149677238Y-70695761D01*
X149724857Y-70648142D01*
X149820095Y-70505285D01*
X149867714Y-70314809D01*
X149867714Y-69933857D01*
X149820095Y-69838619D01*
X149772476Y-69791000D01*
X149677238Y-69743380D01*
X149486761Y-69743380D01*
X149391523Y-69791000D01*
X149343904Y-69838619D01*
X149296285Y-69933857D01*
X149296285Y-70171952D01*
X149343904Y-70267190D01*
X149391523Y-70314809D01*
X149486761Y-70362428D01*
X149677238Y-70362428D01*
X149772476Y-70314809D01*
X149820095Y-70267190D01*
X149867714Y-70171952D01*
%TO.C,U8*%
X131826095Y-93940380D02*
X131826095Y-94749904D01*
X131873714Y-94845142D01*
X131921333Y-94892761D01*
X132016571Y-94940380D01*
X132207047Y-94940380D01*
X132302285Y-94892761D01*
X132349904Y-94845142D01*
X132397523Y-94749904D01*
X132397523Y-93940380D01*
X133016571Y-94368952D02*
X132921333Y-94321333D01*
X132873714Y-94273714D01*
X132826095Y-94178476D01*
X132826095Y-94130857D01*
X132873714Y-94035619D01*
X132921333Y-93988000D01*
X133016571Y-93940380D01*
X133207047Y-93940380D01*
X133302285Y-93988000D01*
X133349904Y-94035619D01*
X133397523Y-94130857D01*
X133397523Y-94178476D01*
X133349904Y-94273714D01*
X133302285Y-94321333D01*
X133207047Y-94368952D01*
X133016571Y-94368952D01*
X132921333Y-94416571D01*
X132873714Y-94464190D01*
X132826095Y-94559428D01*
X132826095Y-94749904D01*
X132873714Y-94845142D01*
X132921333Y-94892761D01*
X133016571Y-94940380D01*
X133207047Y-94940380D01*
X133302285Y-94892761D01*
X133349904Y-94845142D01*
X133397523Y-94749904D01*
X133397523Y-94559428D01*
X133349904Y-94464190D01*
X133302285Y-94416571D01*
X133207047Y-94368952D01*
%TO.C,C10*%
X130167142Y-91289142D02*
X130119523Y-91336761D01*
X129976666Y-91384380D01*
X129881428Y-91384380D01*
X129738571Y-91336761D01*
X129643333Y-91241523D01*
X129595714Y-91146285D01*
X129548095Y-90955809D01*
X129548095Y-90812952D01*
X129595714Y-90622476D01*
X129643333Y-90527238D01*
X129738571Y-90432000D01*
X129881428Y-90384380D01*
X129976666Y-90384380D01*
X130119523Y-90432000D01*
X130167142Y-90479619D01*
X131119523Y-91384380D02*
X130548095Y-91384380D01*
X130833809Y-91384380D02*
X130833809Y-90384380D01*
X130738571Y-90527238D01*
X130643333Y-90622476D01*
X130548095Y-90670095D01*
X131738571Y-90384380D02*
X131833809Y-90384380D01*
X131929047Y-90432000D01*
X131976666Y-90479619D01*
X132024285Y-90574857D01*
X132071904Y-90765333D01*
X132071904Y-91003428D01*
X132024285Y-91193904D01*
X131976666Y-91289142D01*
X131929047Y-91336761D01*
X131833809Y-91384380D01*
X131738571Y-91384380D01*
X131643333Y-91336761D01*
X131595714Y-91289142D01*
X131548095Y-91193904D01*
X131500476Y-91003428D01*
X131500476Y-90765333D01*
X131548095Y-90574857D01*
X131595714Y-90479619D01*
X131643333Y-90432000D01*
X131738571Y-90384380D01*
%TO.C,J2*%
X145462666Y-121118380D02*
X145462666Y-121832666D01*
X145415047Y-121975523D01*
X145319809Y-122070761D01*
X145176952Y-122118380D01*
X145081714Y-122118380D01*
X145891238Y-121213619D02*
X145938857Y-121166000D01*
X146034095Y-121118380D01*
X146272190Y-121118380D01*
X146367428Y-121166000D01*
X146415047Y-121213619D01*
X146462666Y-121308857D01*
X146462666Y-121404095D01*
X146415047Y-121546952D01*
X145843619Y-122118380D01*
X146462666Y-122118380D01*
%TO.C,C1*%
X146264333Y-91924142D02*
X146216714Y-91971761D01*
X146073857Y-92019380D01*
X145978619Y-92019380D01*
X145835761Y-91971761D01*
X145740523Y-91876523D01*
X145692904Y-91781285D01*
X145645285Y-91590809D01*
X145645285Y-91447952D01*
X145692904Y-91257476D01*
X145740523Y-91162238D01*
X145835761Y-91067000D01*
X145978619Y-91019380D01*
X146073857Y-91019380D01*
X146216714Y-91067000D01*
X146264333Y-91114619D01*
X147216714Y-92019380D02*
X146645285Y-92019380D01*
X146931000Y-92019380D02*
X146931000Y-91019380D01*
X146835761Y-91162238D01*
X146740523Y-91257476D01*
X146645285Y-91305095D01*
%TO.C,C2*%
X95337333Y-91289142D02*
X95289714Y-91336761D01*
X95146857Y-91384380D01*
X95051619Y-91384380D01*
X94908761Y-91336761D01*
X94813523Y-91241523D01*
X94765904Y-91146285D01*
X94718285Y-90955809D01*
X94718285Y-90812952D01*
X94765904Y-90622476D01*
X94813523Y-90527238D01*
X94908761Y-90432000D01*
X95051619Y-90384380D01*
X95146857Y-90384380D01*
X95289714Y-90432000D01*
X95337333Y-90479619D01*
X95718285Y-90479619D02*
X95765904Y-90432000D01*
X95861142Y-90384380D01*
X96099238Y-90384380D01*
X96194476Y-90432000D01*
X96242095Y-90479619D01*
X96289714Y-90574857D01*
X96289714Y-90670095D01*
X96242095Y-90812952D01*
X95670666Y-91384380D01*
X96289714Y-91384380D01*
%TO.C,C3*%
X77557333Y-91162142D02*
X77509714Y-91209761D01*
X77366857Y-91257380D01*
X77271619Y-91257380D01*
X77128761Y-91209761D01*
X77033523Y-91114523D01*
X76985904Y-91019285D01*
X76938285Y-90828809D01*
X76938285Y-90685952D01*
X76985904Y-90495476D01*
X77033523Y-90400238D01*
X77128761Y-90305000D01*
X77271619Y-90257380D01*
X77366857Y-90257380D01*
X77509714Y-90305000D01*
X77557333Y-90352619D01*
X77890666Y-90257380D02*
X78509714Y-90257380D01*
X78176380Y-90638333D01*
X78319238Y-90638333D01*
X78414476Y-90685952D01*
X78462095Y-90733571D01*
X78509714Y-90828809D01*
X78509714Y-91066904D01*
X78462095Y-91162142D01*
X78414476Y-91209761D01*
X78319238Y-91257380D01*
X78033523Y-91257380D01*
X77938285Y-91209761D01*
X77890666Y-91162142D01*
%TO.C,C4*%
X112990333Y-91289142D02*
X112942714Y-91336761D01*
X112799857Y-91384380D01*
X112704619Y-91384380D01*
X112561761Y-91336761D01*
X112466523Y-91241523D01*
X112418904Y-91146285D01*
X112371285Y-90955809D01*
X112371285Y-90812952D01*
X112418904Y-90622476D01*
X112466523Y-90527238D01*
X112561761Y-90432000D01*
X112704619Y-90384380D01*
X112799857Y-90384380D01*
X112942714Y-90432000D01*
X112990333Y-90479619D01*
X113847476Y-90717714D02*
X113847476Y-91384380D01*
X113609380Y-90336761D02*
X113371285Y-91051047D01*
X113990333Y-91051047D01*
%TO.C,C5*%
X113117333Y-68429142D02*
X113069714Y-68476761D01*
X112926857Y-68524380D01*
X112831619Y-68524380D01*
X112688761Y-68476761D01*
X112593523Y-68381523D01*
X112545904Y-68286285D01*
X112498285Y-68095809D01*
X112498285Y-67952952D01*
X112545904Y-67762476D01*
X112593523Y-67667238D01*
X112688761Y-67572000D01*
X112831619Y-67524380D01*
X112926857Y-67524380D01*
X113069714Y-67572000D01*
X113117333Y-67619619D01*
X114022095Y-67524380D02*
X113545904Y-67524380D01*
X113498285Y-68000571D01*
X113545904Y-67952952D01*
X113641142Y-67905333D01*
X113879238Y-67905333D01*
X113974476Y-67952952D01*
X114022095Y-68000571D01*
X114069714Y-68095809D01*
X114069714Y-68333904D01*
X114022095Y-68429142D01*
X113974476Y-68476761D01*
X113879238Y-68524380D01*
X113641142Y-68524380D01*
X113545904Y-68476761D01*
X113498285Y-68429142D01*
%TO.C,C6*%
X77430333Y-68429142D02*
X77382714Y-68476761D01*
X77239857Y-68524380D01*
X77144619Y-68524380D01*
X77001761Y-68476761D01*
X76906523Y-68381523D01*
X76858904Y-68286285D01*
X76811285Y-68095809D01*
X76811285Y-67952952D01*
X76858904Y-67762476D01*
X76906523Y-67667238D01*
X77001761Y-67572000D01*
X77144619Y-67524380D01*
X77239857Y-67524380D01*
X77382714Y-67572000D01*
X77430333Y-67619619D01*
X78287476Y-67524380D02*
X78097000Y-67524380D01*
X78001761Y-67572000D01*
X77954142Y-67619619D01*
X77858904Y-67762476D01*
X77811285Y-67952952D01*
X77811285Y-68333904D01*
X77858904Y-68429142D01*
X77906523Y-68476761D01*
X78001761Y-68524380D01*
X78192238Y-68524380D01*
X78287476Y-68476761D01*
X78335095Y-68429142D01*
X78382714Y-68333904D01*
X78382714Y-68095809D01*
X78335095Y-68000571D01*
X78287476Y-67952952D01*
X78192238Y-67905333D01*
X78001761Y-67905333D01*
X77906523Y-67952952D01*
X77858904Y-68000571D01*
X77811285Y-68095809D01*
%TO.C,C7*%
X130643333Y-68429142D02*
X130595714Y-68476761D01*
X130452857Y-68524380D01*
X130357619Y-68524380D01*
X130214761Y-68476761D01*
X130119523Y-68381523D01*
X130071904Y-68286285D01*
X130024285Y-68095809D01*
X130024285Y-67952952D01*
X130071904Y-67762476D01*
X130119523Y-67667238D01*
X130214761Y-67572000D01*
X130357619Y-67524380D01*
X130452857Y-67524380D01*
X130595714Y-67572000D01*
X130643333Y-67619619D01*
X130976666Y-67524380D02*
X131643333Y-67524380D01*
X131214761Y-68524380D01*
%TO.C,C8*%
X95210333Y-68429142D02*
X95162714Y-68476761D01*
X95019857Y-68524380D01*
X94924619Y-68524380D01*
X94781761Y-68476761D01*
X94686523Y-68381523D01*
X94638904Y-68286285D01*
X94591285Y-68095809D01*
X94591285Y-67952952D01*
X94638904Y-67762476D01*
X94686523Y-67667238D01*
X94781761Y-67572000D01*
X94924619Y-67524380D01*
X95019857Y-67524380D01*
X95162714Y-67572000D01*
X95210333Y-67619619D01*
X95781761Y-67952952D02*
X95686523Y-67905333D01*
X95638904Y-67857714D01*
X95591285Y-67762476D01*
X95591285Y-67714857D01*
X95638904Y-67619619D01*
X95686523Y-67572000D01*
X95781761Y-67524380D01*
X95972238Y-67524380D01*
X96067476Y-67572000D01*
X96115095Y-67619619D01*
X96162714Y-67714857D01*
X96162714Y-67762476D01*
X96115095Y-67857714D01*
X96067476Y-67905333D01*
X95972238Y-67952952D01*
X95781761Y-67952952D01*
X95686523Y-68000571D01*
X95638904Y-68048190D01*
X95591285Y-68143428D01*
X95591285Y-68333904D01*
X95638904Y-68429142D01*
X95686523Y-68476761D01*
X95781761Y-68524380D01*
X95972238Y-68524380D01*
X96067476Y-68476761D01*
X96115095Y-68429142D01*
X96162714Y-68333904D01*
X96162714Y-68143428D01*
X96115095Y-68048190D01*
X96067476Y-68000571D01*
X95972238Y-67952952D01*
%TO.C,D1*%
X155598904Y-71699380D02*
X155598904Y-70699380D01*
X155837000Y-70699380D01*
X155979857Y-70747000D01*
X156075095Y-70842238D01*
X156122714Y-70937476D01*
X156170333Y-71127952D01*
X156170333Y-71270809D01*
X156122714Y-71461285D01*
X156075095Y-71556523D01*
X155979857Y-71651761D01*
X155837000Y-71699380D01*
X155598904Y-71699380D01*
X157122714Y-71699380D02*
X156551285Y-71699380D01*
X156837000Y-71699380D02*
X156837000Y-70699380D01*
X156741761Y-70842238D01*
X156646523Y-70937476D01*
X156551285Y-70985095D01*
%TO.C,J1*%
X162480666Y-71461380D02*
X162480666Y-72175666D01*
X162433047Y-72318523D01*
X162337809Y-72413761D01*
X162194952Y-72461380D01*
X162099714Y-72461380D01*
X163480666Y-72461380D02*
X162909238Y-72461380D01*
X163194952Y-72461380D02*
X163194952Y-71461380D01*
X163099714Y-71604238D01*
X163004476Y-71699476D01*
X162909238Y-71747095D01*
%TO.C,J3*%
X145208666Y-59650380D02*
X145208666Y-60364666D01*
X145161047Y-60507523D01*
X145065809Y-60602761D01*
X144922952Y-60650380D01*
X144827714Y-60650380D01*
X145589619Y-59650380D02*
X146208666Y-59650380D01*
X145875333Y-60031333D01*
X146018190Y-60031333D01*
X146113428Y-60078952D01*
X146161047Y-60126571D01*
X146208666Y-60221809D01*
X146208666Y-60459904D01*
X146161047Y-60555142D01*
X146113428Y-60602761D01*
X146018190Y-60650380D01*
X145732476Y-60650380D01*
X145637238Y-60602761D01*
X145589619Y-60555142D01*
%TO.C,J4*%
X145208666Y-63460380D02*
X145208666Y-64174666D01*
X145161047Y-64317523D01*
X145065809Y-64412761D01*
X144922952Y-64460380D01*
X144827714Y-64460380D01*
X146113428Y-63793714D02*
X146113428Y-64460380D01*
X145875333Y-63412761D02*
X145637238Y-64127047D01*
X146256285Y-64127047D01*
%TO.C,J5*%
X156338666Y-65619380D02*
X156338666Y-66333666D01*
X156291047Y-66476523D01*
X156195809Y-66571761D01*
X156052952Y-66619380D01*
X155957714Y-66619380D01*
X157291047Y-65619380D02*
X156814857Y-65619380D01*
X156767238Y-66095571D01*
X156814857Y-66047952D01*
X156910095Y-66000333D01*
X157148190Y-66000333D01*
X157243428Y-66047952D01*
X157291047Y-66095571D01*
X157338666Y-66190809D01*
X157338666Y-66428904D01*
X157291047Y-66524142D01*
X157243428Y-66571761D01*
X157148190Y-66619380D01*
X156910095Y-66619380D01*
X156814857Y-66571761D01*
X156767238Y-66524142D01*
%TO.C,R1*%
X141565333Y-98369380D02*
X141232000Y-97893190D01*
X140993904Y-98369380D02*
X140993904Y-97369380D01*
X141374857Y-97369380D01*
X141470095Y-97417000D01*
X141517714Y-97464619D01*
X141565333Y-97559857D01*
X141565333Y-97702714D01*
X141517714Y-97797952D01*
X141470095Y-97845571D01*
X141374857Y-97893190D01*
X140993904Y-97893190D01*
X142517714Y-98369380D02*
X141946285Y-98369380D01*
X142232000Y-98369380D02*
X142232000Y-97369380D01*
X142136761Y-97512238D01*
X142041523Y-97607476D01*
X141946285Y-97655095D01*
%TO.C,R2*%
X141565333Y-103322380D02*
X141232000Y-102846190D01*
X140993904Y-103322380D02*
X140993904Y-102322380D01*
X141374857Y-102322380D01*
X141470095Y-102370000D01*
X141517714Y-102417619D01*
X141565333Y-102512857D01*
X141565333Y-102655714D01*
X141517714Y-102750952D01*
X141470095Y-102798571D01*
X141374857Y-102846190D01*
X140993904Y-102846190D01*
X141946285Y-102417619D02*
X141993904Y-102370000D01*
X142089142Y-102322380D01*
X142327238Y-102322380D01*
X142422476Y-102370000D01*
X142470095Y-102417619D01*
X142517714Y-102512857D01*
X142517714Y-102608095D01*
X142470095Y-102750952D01*
X141898666Y-103322380D01*
X142517714Y-103322380D01*
%TO.C,R3*%
X141565333Y-108529380D02*
X141232000Y-108053190D01*
X140993904Y-108529380D02*
X140993904Y-107529380D01*
X141374857Y-107529380D01*
X141470095Y-107577000D01*
X141517714Y-107624619D01*
X141565333Y-107719857D01*
X141565333Y-107862714D01*
X141517714Y-107957952D01*
X141470095Y-108005571D01*
X141374857Y-108053190D01*
X140993904Y-108053190D01*
X141898666Y-107529380D02*
X142517714Y-107529380D01*
X142184380Y-107910333D01*
X142327238Y-107910333D01*
X142422476Y-107957952D01*
X142470095Y-108005571D01*
X142517714Y-108100809D01*
X142517714Y-108338904D01*
X142470095Y-108434142D01*
X142422476Y-108481761D01*
X142327238Y-108529380D01*
X142041523Y-108529380D01*
X141946285Y-108481761D01*
X141898666Y-108434142D01*
%TO.C,R4*%
X141565333Y-113482380D02*
X141232000Y-113006190D01*
X140993904Y-113482380D02*
X140993904Y-112482380D01*
X141374857Y-112482380D01*
X141470095Y-112530000D01*
X141517714Y-112577619D01*
X141565333Y-112672857D01*
X141565333Y-112815714D01*
X141517714Y-112910952D01*
X141470095Y-112958571D01*
X141374857Y-113006190D01*
X140993904Y-113006190D01*
X142422476Y-112815714D02*
X142422476Y-113482380D01*
X142184380Y-112434761D02*
X141946285Y-113149047D01*
X142565333Y-113149047D01*
%TO.C,R5*%
X153630333Y-98369380D02*
X153297000Y-97893190D01*
X153058904Y-98369380D02*
X153058904Y-97369380D01*
X153439857Y-97369380D01*
X153535095Y-97417000D01*
X153582714Y-97464619D01*
X153630333Y-97559857D01*
X153630333Y-97702714D01*
X153582714Y-97797952D01*
X153535095Y-97845571D01*
X153439857Y-97893190D01*
X153058904Y-97893190D01*
X154535095Y-97369380D02*
X154058904Y-97369380D01*
X154011285Y-97845571D01*
X154058904Y-97797952D01*
X154154142Y-97750333D01*
X154392238Y-97750333D01*
X154487476Y-97797952D01*
X154535095Y-97845571D01*
X154582714Y-97940809D01*
X154582714Y-98178904D01*
X154535095Y-98274142D01*
X154487476Y-98321761D01*
X154392238Y-98369380D01*
X154154142Y-98369380D01*
X154058904Y-98321761D01*
X154011285Y-98274142D01*
%TO.C,R6*%
X153630333Y-103449380D02*
X153297000Y-102973190D01*
X153058904Y-103449380D02*
X153058904Y-102449380D01*
X153439857Y-102449380D01*
X153535095Y-102497000D01*
X153582714Y-102544619D01*
X153630333Y-102639857D01*
X153630333Y-102782714D01*
X153582714Y-102877952D01*
X153535095Y-102925571D01*
X153439857Y-102973190D01*
X153058904Y-102973190D01*
X154487476Y-102449380D02*
X154297000Y-102449380D01*
X154201761Y-102497000D01*
X154154142Y-102544619D01*
X154058904Y-102687476D01*
X154011285Y-102877952D01*
X154011285Y-103258904D01*
X154058904Y-103354142D01*
X154106523Y-103401761D01*
X154201761Y-103449380D01*
X154392238Y-103449380D01*
X154487476Y-103401761D01*
X154535095Y-103354142D01*
X154582714Y-103258904D01*
X154582714Y-103020809D01*
X154535095Y-102925571D01*
X154487476Y-102877952D01*
X154392238Y-102830333D01*
X154201761Y-102830333D01*
X154106523Y-102877952D01*
X154058904Y-102925571D01*
X154011285Y-103020809D01*
%TO.C,R7*%
X153630333Y-108529380D02*
X153297000Y-108053190D01*
X153058904Y-108529380D02*
X153058904Y-107529380D01*
X153439857Y-107529380D01*
X153535095Y-107577000D01*
X153582714Y-107624619D01*
X153630333Y-107719857D01*
X153630333Y-107862714D01*
X153582714Y-107957952D01*
X153535095Y-108005571D01*
X153439857Y-108053190D01*
X153058904Y-108053190D01*
X153963666Y-107529380D02*
X154630333Y-107529380D01*
X154201761Y-108529380D01*
%TO.C,R8*%
X153630333Y-113609380D02*
X153297000Y-113133190D01*
X153058904Y-113609380D02*
X153058904Y-112609380D01*
X153439857Y-112609380D01*
X153535095Y-112657000D01*
X153582714Y-112704619D01*
X153630333Y-112799857D01*
X153630333Y-112942714D01*
X153582714Y-113037952D01*
X153535095Y-113085571D01*
X153439857Y-113133190D01*
X153058904Y-113133190D01*
X154201761Y-113037952D02*
X154106523Y-112990333D01*
X154058904Y-112942714D01*
X154011285Y-112847476D01*
X154011285Y-112799857D01*
X154058904Y-112704619D01*
X154106523Y-112657000D01*
X154201761Y-112609380D01*
X154392238Y-112609380D01*
X154487476Y-112657000D01*
X154535095Y-112704619D01*
X154582714Y-112799857D01*
X154582714Y-112847476D01*
X154535095Y-112942714D01*
X154487476Y-112990333D01*
X154392238Y-113037952D01*
X154201761Y-113037952D01*
X154106523Y-113085571D01*
X154058904Y-113133190D01*
X154011285Y-113228428D01*
X154011285Y-113418904D01*
X154058904Y-113514142D01*
X154106523Y-113561761D01*
X154201761Y-113609380D01*
X154392238Y-113609380D01*
X154487476Y-113561761D01*
X154535095Y-113514142D01*
X154582714Y-113418904D01*
X154582714Y-113228428D01*
X154535095Y-113133190D01*
X154487476Y-113085571D01*
X154392238Y-113037952D01*
%TO.C,U1*%
X96520095Y-93940380D02*
X96520095Y-94749904D01*
X96567714Y-94845142D01*
X96615333Y-94892761D01*
X96710571Y-94940380D01*
X96901047Y-94940380D01*
X96996285Y-94892761D01*
X97043904Y-94845142D01*
X97091523Y-94749904D01*
X97091523Y-93940380D01*
X98091523Y-94940380D02*
X97520095Y-94940380D01*
X97805809Y-94940380D02*
X97805809Y-93940380D01*
X97710571Y-94083238D01*
X97615333Y-94178476D01*
X97520095Y-94226095D01*
%TO.C,U2*%
X131826095Y-71080380D02*
X131826095Y-71889904D01*
X131873714Y-71985142D01*
X131921333Y-72032761D01*
X132016571Y-72080380D01*
X132207047Y-72080380D01*
X132302285Y-72032761D01*
X132349904Y-71985142D01*
X132397523Y-71889904D01*
X132397523Y-71080380D01*
X132826095Y-71175619D02*
X132873714Y-71128000D01*
X132968952Y-71080380D01*
X133207047Y-71080380D01*
X133302285Y-71128000D01*
X133349904Y-71175619D01*
X133397523Y-71270857D01*
X133397523Y-71366095D01*
X133349904Y-71508952D01*
X132778476Y-72080380D01*
X133397523Y-72080380D01*
%TO.C,U3*%
X78613095Y-71080380D02*
X78613095Y-71889904D01*
X78660714Y-71985142D01*
X78708333Y-72032761D01*
X78803571Y-72080380D01*
X78994047Y-72080380D01*
X79089285Y-72032761D01*
X79136904Y-71985142D01*
X79184523Y-71889904D01*
X79184523Y-71080380D01*
X79565476Y-71080380D02*
X80184523Y-71080380D01*
X79851190Y-71461333D01*
X79994047Y-71461333D01*
X80089285Y-71508952D01*
X80136904Y-71556571D01*
X80184523Y-71651809D01*
X80184523Y-71889904D01*
X80136904Y-71985142D01*
X80089285Y-72032761D01*
X79994047Y-72080380D01*
X79708333Y-72080380D01*
X79613095Y-72032761D01*
X79565476Y-71985142D01*
%TO.C,U4*%
X114300095Y-71080380D02*
X114300095Y-71889904D01*
X114347714Y-71985142D01*
X114395333Y-72032761D01*
X114490571Y-72080380D01*
X114681047Y-72080380D01*
X114776285Y-72032761D01*
X114823904Y-71985142D01*
X114871523Y-71889904D01*
X114871523Y-71080380D01*
X115776285Y-71413714D02*
X115776285Y-72080380D01*
X115538190Y-71032761D02*
X115300095Y-71747047D01*
X115919142Y-71747047D01*
%TO.C,U5*%
X96393095Y-71080380D02*
X96393095Y-71889904D01*
X96440714Y-71985142D01*
X96488333Y-72032761D01*
X96583571Y-72080380D01*
X96774047Y-72080380D01*
X96869285Y-72032761D01*
X96916904Y-71985142D01*
X96964523Y-71889904D01*
X96964523Y-71080380D01*
X97916904Y-71080380D02*
X97440714Y-71080380D01*
X97393095Y-71556571D01*
X97440714Y-71508952D01*
X97535952Y-71461333D01*
X97774047Y-71461333D01*
X97869285Y-71508952D01*
X97916904Y-71556571D01*
X97964523Y-71651809D01*
X97964523Y-71889904D01*
X97916904Y-71985142D01*
X97869285Y-72032761D01*
X97774047Y-72080380D01*
X97535952Y-72080380D01*
X97440714Y-72032761D01*
X97393095Y-71985142D01*
%TO.C,U6*%
X78740095Y-93940380D02*
X78740095Y-94749904D01*
X78787714Y-94845142D01*
X78835333Y-94892761D01*
X78930571Y-94940380D01*
X79121047Y-94940380D01*
X79216285Y-94892761D01*
X79263904Y-94845142D01*
X79311523Y-94749904D01*
X79311523Y-93940380D01*
X80216285Y-93940380D02*
X80025809Y-93940380D01*
X79930571Y-93988000D01*
X79882952Y-94035619D01*
X79787714Y-94178476D01*
X79740095Y-94368952D01*
X79740095Y-94749904D01*
X79787714Y-94845142D01*
X79835333Y-94892761D01*
X79930571Y-94940380D01*
X80121047Y-94940380D01*
X80216285Y-94892761D01*
X80263904Y-94845142D01*
X80311523Y-94749904D01*
X80311523Y-94511809D01*
X80263904Y-94416571D01*
X80216285Y-94368952D01*
X80121047Y-94321333D01*
X79930571Y-94321333D01*
X79835333Y-94368952D01*
X79787714Y-94416571D01*
X79740095Y-94511809D01*
%TO.C,U7*%
X114300095Y-93940380D02*
X114300095Y-94749904D01*
X114347714Y-94845142D01*
X114395333Y-94892761D01*
X114490571Y-94940380D01*
X114681047Y-94940380D01*
X114776285Y-94892761D01*
X114823904Y-94845142D01*
X114871523Y-94749904D01*
X114871523Y-93940380D01*
X115252476Y-93940380D02*
X115919142Y-93940380D01*
X115490571Y-94940380D01*
%TD*%
M02*
