%TF.GenerationSoftware,KiCad,Pcbnew,(5.1.12)-1*%
%TF.CreationDate,2023-01-10T21:31:37-06:00*%
%TF.ProjectId,NABU_IDE,4e414255-5f49-4444-952e-6b696361645f,rev?*%
%TF.SameCoordinates,Original*%
%TF.FileFunction,Soldermask,Bot*%
%TF.FilePolarity,Negative*%
%FSLAX46Y46*%
G04 Gerber Fmt 4.6, Leading zero omitted, Abs format (unit mm)*
G04 Created by KiCad (PCBNEW (5.1.12)-1) date 2023-01-10 21:31:37*
%MOMM*%
%LPD*%
G01*
G04 APERTURE LIST*
%ADD10C,3.000000*%
%ADD11C,1.600000*%
%ADD12R,1.600000X1.600000*%
%ADD13O,1.600000X1.600000*%
%ADD14R,1.700000X1.700000*%
%ADD15O,1.700000X1.700000*%
%ADD16R,1.800000X1.800000*%
%ADD17C,1.800000*%
%ADD18C,1.700000*%
%ADD19O,3.160000X4.100000*%
G04 APERTURE END LIST*
D10*
%TO.C,H2*%
X63817500Y-60833000D03*
%TD*%
%TO.C,H1*%
X63817500Y-123825000D03*
%TD*%
D11*
%TO.C,C9*%
X150082000Y-74041000D03*
D12*
X148082000Y-74041000D03*
%TD*%
D13*
%TO.C,U8*%
X130048000Y-94488000D03*
X122428000Y-117348000D03*
X130048000Y-97028000D03*
X122428000Y-114808000D03*
X130048000Y-99568000D03*
X122428000Y-112268000D03*
X130048000Y-102108000D03*
X122428000Y-109728000D03*
X130048000Y-104648000D03*
X122428000Y-107188000D03*
X130048000Y-107188000D03*
X122428000Y-104648000D03*
X130048000Y-109728000D03*
X122428000Y-102108000D03*
X130048000Y-112268000D03*
X122428000Y-99568000D03*
X130048000Y-114808000D03*
X122428000Y-97028000D03*
X130048000Y-117348000D03*
D12*
X122428000Y-94488000D03*
%TD*%
D11*
%TO.C,C10*%
X128698000Y-90932000D03*
X123698000Y-90932000D03*
%TD*%
D14*
%TO.C,J2*%
X143002000Y-121666000D03*
D15*
X140462000Y-121666000D03*
X137922000Y-121666000D03*
X135382000Y-121666000D03*
X132842000Y-121666000D03*
X130302000Y-121666000D03*
X127762000Y-121666000D03*
X125222000Y-121666000D03*
X122682000Y-121666000D03*
X120142000Y-121666000D03*
X117602000Y-121666000D03*
X115062000Y-121666000D03*
X112522000Y-121666000D03*
X109982000Y-121666000D03*
X107442000Y-121666000D03*
X104902000Y-121666000D03*
X102362000Y-121666000D03*
X99822000Y-121666000D03*
X97282000Y-121666000D03*
X94742000Y-121666000D03*
X92202000Y-121666000D03*
X89662000Y-121666000D03*
X87122000Y-121666000D03*
X84582000Y-121666000D03*
X82042000Y-121666000D03*
X79502000Y-121666000D03*
X76962000Y-121666000D03*
X74422000Y-121666000D03*
X71882000Y-121666000D03*
X69342000Y-121666000D03*
%TD*%
D11*
%TO.C,C1*%
X139319000Y-91567000D03*
X144319000Y-91567000D03*
%TD*%
%TO.C,C2*%
X93392000Y-90932000D03*
X88392000Y-90932000D03*
%TD*%
%TO.C,C3*%
X70612000Y-90805000D03*
X75612000Y-90805000D03*
%TD*%
%TO.C,C4*%
X111172000Y-90932000D03*
X106172000Y-90932000D03*
%TD*%
%TO.C,C5*%
X106172000Y-68072000D03*
X111172000Y-68072000D03*
%TD*%
%TO.C,C6*%
X75485000Y-68072000D03*
X70485000Y-68072000D03*
%TD*%
%TO.C,C7*%
X123698000Y-68072000D03*
X128698000Y-68072000D03*
%TD*%
%TO.C,C8*%
X93265000Y-68072000D03*
X88265000Y-68072000D03*
%TD*%
D16*
%TO.C,D1*%
X157353000Y-74041000D03*
D17*
X154813000Y-74041000D03*
%TD*%
%TO.C,J1*%
G36*
G01*
X160694000Y-74641000D02*
X160694000Y-73441000D01*
G75*
G02*
X160944000Y-73191000I250000J0D01*
G01*
X162144000Y-73191000D01*
G75*
G02*
X162394000Y-73441000I0J-250000D01*
G01*
X162394000Y-74641000D01*
G75*
G02*
X162144000Y-74891000I-250000J0D01*
G01*
X160944000Y-74891000D01*
G75*
G02*
X160694000Y-74641000I0J250000D01*
G01*
G37*
D18*
X161544000Y-76581000D03*
X161544000Y-79121000D03*
X161544000Y-81661000D03*
X161544000Y-84201000D03*
X161544000Y-86741000D03*
X161544000Y-89281000D03*
X161544000Y-91821000D03*
X161544000Y-94361000D03*
X161544000Y-96901000D03*
X161544000Y-99441000D03*
X161544000Y-101981000D03*
X161544000Y-104521000D03*
X161544000Y-107061000D03*
X161544000Y-109601000D03*
X161544000Y-112141000D03*
X161544000Y-114681000D03*
X161544000Y-117221000D03*
X161544000Y-119761000D03*
X161544000Y-122301000D03*
X164084000Y-74041000D03*
X164084000Y-76581000D03*
X164084000Y-79121000D03*
X164084000Y-81661000D03*
X164084000Y-84201000D03*
X164084000Y-86741000D03*
X164084000Y-89281000D03*
X164084000Y-91821000D03*
X164084000Y-94361000D03*
X164084000Y-96901000D03*
X164084000Y-99441000D03*
X164084000Y-101981000D03*
X164084000Y-104521000D03*
X164084000Y-107061000D03*
X164084000Y-109601000D03*
X164084000Y-112141000D03*
X164084000Y-114681000D03*
X164084000Y-117221000D03*
X164084000Y-119761000D03*
X164084000Y-122301000D03*
%TD*%
D15*
%TO.C,J3*%
X69215000Y-60198000D03*
X71755000Y-60198000D03*
X74295000Y-60198000D03*
X76835000Y-60198000D03*
X79375000Y-60198000D03*
X81915000Y-60198000D03*
X84455000Y-60198000D03*
X86995000Y-60198000D03*
X89535000Y-60198000D03*
X92075000Y-60198000D03*
X94615000Y-60198000D03*
X97155000Y-60198000D03*
X99695000Y-60198000D03*
X102235000Y-60198000D03*
X104775000Y-60198000D03*
X107315000Y-60198000D03*
X109855000Y-60198000D03*
X112395000Y-60198000D03*
X114935000Y-60198000D03*
X117475000Y-60198000D03*
X120015000Y-60198000D03*
X122555000Y-60198000D03*
X125095000Y-60198000D03*
X127635000Y-60198000D03*
X130175000Y-60198000D03*
X132715000Y-60198000D03*
X135255000Y-60198000D03*
X137795000Y-60198000D03*
X140335000Y-60198000D03*
D14*
X142875000Y-60198000D03*
%TD*%
%TO.C,J4*%
X142875000Y-64008000D03*
D15*
X140335000Y-64008000D03*
X137795000Y-64008000D03*
X135255000Y-64008000D03*
X132715000Y-64008000D03*
X130175000Y-64008000D03*
X127635000Y-64008000D03*
X125095000Y-64008000D03*
X122555000Y-64008000D03*
X120015000Y-64008000D03*
X117475000Y-64008000D03*
X114935000Y-64008000D03*
X112395000Y-64008000D03*
X109855000Y-64008000D03*
X107315000Y-64008000D03*
X104775000Y-64008000D03*
X102235000Y-64008000D03*
X99695000Y-64008000D03*
X97155000Y-64008000D03*
X94615000Y-64008000D03*
X92075000Y-64008000D03*
X89535000Y-64008000D03*
X86995000Y-64008000D03*
X84455000Y-64008000D03*
X81915000Y-64008000D03*
X79375000Y-64008000D03*
X76835000Y-64008000D03*
X74295000Y-64008000D03*
X71755000Y-64008000D03*
X69215000Y-64008000D03*
%TD*%
%TO.C,J5*%
G36*
G01*
X166172000Y-60811000D02*
X166172000Y-64411000D01*
G75*
G02*
X165922000Y-64661000I-250000J0D01*
G01*
X163262000Y-64661000D01*
G75*
G02*
X163012000Y-64411000I0J250000D01*
G01*
X163012000Y-60811000D01*
G75*
G02*
X163262000Y-60561000I250000J0D01*
G01*
X165922000Y-60561000D01*
G75*
G02*
X166172000Y-60811000I0J-250000D01*
G01*
G37*
D19*
X160632000Y-62611000D03*
X156672000Y-62611000D03*
X152712000Y-62611000D03*
X148752000Y-62611000D03*
%TD*%
D14*
%TO.C,JP1*%
X157607000Y-79883000D03*
D15*
X155067000Y-79883000D03*
%TD*%
%TO.C,JP2*%
X155067000Y-84963000D03*
D14*
X157607000Y-84963000D03*
%TD*%
D11*
%TO.C,R1*%
X137922000Y-95377000D03*
D13*
X145542000Y-95377000D03*
%TD*%
D11*
%TO.C,R2*%
X145542000Y-100457000D03*
D13*
X137922000Y-100457000D03*
%TD*%
%TO.C,R3*%
X137922000Y-105537000D03*
D11*
X145542000Y-105537000D03*
%TD*%
%TO.C,R4*%
X145542000Y-110490000D03*
D13*
X137922000Y-110490000D03*
%TD*%
%TO.C,R5*%
X157607000Y-95377000D03*
D11*
X149987000Y-95377000D03*
%TD*%
D13*
%TO.C,R6*%
X157607000Y-100457000D03*
D11*
X149987000Y-100457000D03*
%TD*%
%TO.C,R7*%
X157607000Y-105537000D03*
D13*
X149987000Y-105537000D03*
%TD*%
%TO.C,R8*%
X149987000Y-110617000D03*
D11*
X157607000Y-110617000D03*
%TD*%
D13*
%TO.C,U1*%
X94742000Y-94488000D03*
X87122000Y-117348000D03*
X94742000Y-97028000D03*
X87122000Y-114808000D03*
X94742000Y-99568000D03*
X87122000Y-112268000D03*
X94742000Y-102108000D03*
X87122000Y-109728000D03*
X94742000Y-104648000D03*
X87122000Y-107188000D03*
X94742000Y-107188000D03*
X87122000Y-104648000D03*
X94742000Y-109728000D03*
X87122000Y-102108000D03*
X94742000Y-112268000D03*
X87122000Y-99568000D03*
X94742000Y-114808000D03*
X87122000Y-97028000D03*
X94742000Y-117348000D03*
D12*
X87122000Y-94488000D03*
%TD*%
D13*
%TO.C,U2*%
X130048000Y-71628000D03*
X122428000Y-86868000D03*
X130048000Y-74168000D03*
X122428000Y-84328000D03*
X130048000Y-76708000D03*
X122428000Y-81788000D03*
X130048000Y-79248000D03*
X122428000Y-79248000D03*
X130048000Y-81788000D03*
X122428000Y-76708000D03*
X130048000Y-84328000D03*
X122428000Y-74168000D03*
X130048000Y-86868000D03*
D12*
X122428000Y-71628000D03*
%TD*%
%TO.C,U3*%
X69215000Y-71628000D03*
D13*
X76835000Y-86868000D03*
X69215000Y-74168000D03*
X76835000Y-84328000D03*
X69215000Y-76708000D03*
X76835000Y-81788000D03*
X69215000Y-79248000D03*
X76835000Y-79248000D03*
X69215000Y-81788000D03*
X76835000Y-76708000D03*
X69215000Y-84328000D03*
X76835000Y-74168000D03*
X69215000Y-86868000D03*
X76835000Y-71628000D03*
%TD*%
%TO.C,U4*%
X112522000Y-71628000D03*
X104902000Y-86868000D03*
X112522000Y-74168000D03*
X104902000Y-84328000D03*
X112522000Y-76708000D03*
X104902000Y-81788000D03*
X112522000Y-79248000D03*
X104902000Y-79248000D03*
X112522000Y-81788000D03*
X104902000Y-76708000D03*
X112522000Y-84328000D03*
X104902000Y-74168000D03*
X112522000Y-86868000D03*
D12*
X104902000Y-71628000D03*
%TD*%
%TO.C,U5*%
X86995000Y-71628000D03*
D13*
X94615000Y-86868000D03*
X86995000Y-74168000D03*
X94615000Y-84328000D03*
X86995000Y-76708000D03*
X94615000Y-81788000D03*
X86995000Y-79248000D03*
X94615000Y-79248000D03*
X86995000Y-81788000D03*
X94615000Y-76708000D03*
X86995000Y-84328000D03*
X94615000Y-74168000D03*
X86995000Y-86868000D03*
X94615000Y-71628000D03*
%TD*%
D12*
%TO.C,U6*%
X69342000Y-94488000D03*
D13*
X76962000Y-117348000D03*
X69342000Y-97028000D03*
X76962000Y-114808000D03*
X69342000Y-99568000D03*
X76962000Y-112268000D03*
X69342000Y-102108000D03*
X76962000Y-109728000D03*
X69342000Y-104648000D03*
X76962000Y-107188000D03*
X69342000Y-107188000D03*
X76962000Y-104648000D03*
X69342000Y-109728000D03*
X76962000Y-102108000D03*
X69342000Y-112268000D03*
X76962000Y-99568000D03*
X69342000Y-114808000D03*
X76962000Y-97028000D03*
X69342000Y-117348000D03*
X76962000Y-94488000D03*
%TD*%
D12*
%TO.C,U7*%
X104902000Y-94488000D03*
D13*
X112522000Y-117348000D03*
X104902000Y-97028000D03*
X112522000Y-114808000D03*
X104902000Y-99568000D03*
X112522000Y-112268000D03*
X104902000Y-102108000D03*
X112522000Y-109728000D03*
X104902000Y-104648000D03*
X112522000Y-107188000D03*
X104902000Y-107188000D03*
X112522000Y-104648000D03*
X104902000Y-109728000D03*
X112522000Y-102108000D03*
X104902000Y-112268000D03*
X112522000Y-99568000D03*
X104902000Y-114808000D03*
X112522000Y-97028000D03*
X104902000Y-117348000D03*
X112522000Y-94488000D03*
%TD*%
M02*
